<svg xmlns="http://www.w3.org/2000/svg" fill="none" viewBox="0 0 48 48" id="Avg-Time--Streamline-Outlined-Material">
  <desc>
    Avg Time Streamline Icon: https://streamlinehq.com
  </desc>
  <path fill="currentColor" d="M9.05 24.5H16c0.2667 0 0.525 0.0667 0.775 0.2 0.25 0.1333 0.4417 0.3333 0.575 0.6L20 30.65l6.65 -13.35c0.2667 -0.5667 0.7167 -0.85 1.35 -0.85 0.6333 0 1.0833 0.2833 1.35 0.85l3.6 7.2h6c-0.3667 -3.8333 -1.9667 -7.05 -4.8 -9.65 -2.8333 -2.6 -6.2167 -3.9 -10.15 -3.9s-7.3167 1.3 -10.15 3.9c-2.8333 2.6 -4.43333 5.8167 -4.8 9.65ZM24 40.95c3.9333 0 7.3083 -1.2917 10.125 -3.875S38.5333 31.3 38.9 27.5H32c-0.2667 0 -0.525 -0.0667 -0.775 -0.2 -0.25 -0.1333 -0.4417 -0.3333 -0.575 -0.6L28 21.35 21.35 34.7c-0.2667 0.5667 -0.7167 0.85 -1.35 0.85 -0.6333 0 -1.0833 -0.2833 -1.35 -0.85l-3.6 -7.2H9.1c0.36667 3.8 1.9583 6.9917 4.775 9.575C16.6917 39.6583 20.0667 40.95 24 40.95Zm0 3c-2.4667 0 -4.7917 -0.475 -6.975 -1.425 -2.1833 -0.95 -4.0917 -2.2417 -5.725 -3.875 -1.63333 -1.6333 -2.925 -3.5417 -3.875 -5.725C6.475 30.7417 6 28.4167 6 25.95h3c0 4.1667 1.4583 7.7083 4.375 10.625C16.2917 39.4917 19.8333 40.95 24 40.95s7.7083 -1.4583 10.625 -4.375C37.5417 33.6583 39 30.1167 39 25.95h3c0 2.4667 -0.475 4.7917 -1.425 6.975 -0.95 2.1833 -2.2417 4.0917 -3.875 5.725 -1.6333 1.6333 -3.5417 2.925 -5.725 3.875 -2.1833 0.95 -4.5083 1.425 -6.975 1.425Zm-18 -18c0 -2.4667 0.475 -4.7917 1.425 -6.975 0.95 -2.1833 2.24167 -4.0917 3.875 -5.725 1.6333 -1.6333 3.5417 -2.925 5.725 -3.875C19.2083 8.425 21.5333 7.95 24 7.95c2.2333 0 4.3333 0.375 6.3 1.125 1.9667 0.75 3.7167 1.7917 5.25 3.125l2.55 -2.55 2.1 2.1 -2.55 2.55c1.2 1.3333 2.225 2.95 3.075 4.85 0.85 1.9 1.275 4.1667 1.275 6.8h-3c0 -4.1667 -1.4583 -7.7083 -4.375 -10.625C31.7083 12.4083 28.1667 10.95 24 10.95s-7.7083 1.4583 -10.625 4.375C10.4583 18.2417 9 21.7833 9 25.95H6ZM18 5V2h12v3H18Zm6 35.95c-4.1667 0 -7.7083 -1.4583 -10.625 -4.375C10.4583 33.6583 9 30.1167 9 25.95s1.4583 -7.7083 4.375 -10.625C16.2917 12.4083 19.8333 10.95 24 10.95s7.7083 1.4583 10.625 4.375C37.5417 18.2417 39 21.7833 39 25.95s-1.4583 7.7083 -4.375 10.625C31.7083 39.4917 28.1667 40.95 24 40.95Z" stroke-width="1"></path>
</svg>