<svg xmlns="http://www.w3.org/2000/svg" fill="none" viewBox="0 0 48 48" id="Chart-Data--Streamline-Outlined-Material">
  <desc>
    Chart Data Streamline Icon: https://streamlinehq.com
  </desc>
  <path fill="currentColor" d="m14.8 31.3 6.1 -6.1 4 4 7.6 -7.55v3.85h3v-9h-9v3h3.85l-5.45 5.45 -4 -4 -8.2 8.25 2.1 2.1ZM9 42c-0.8 0 -1.5 -0.3 -2.1 -0.9 -0.6 -0.6 -0.9 -1.3 -0.9 -2.1V9c0 -0.8 0.3 -1.5 0.9 -2.1C7.5 6.3 8.2 6 9 6h30c0.8 0 1.5 0.3 2.1 0.9 0.6 0.6 0.9 1.3 0.9 2.1v30c0 0.8 -0.3 1.5 -0.9 2.1 -0.6 0.6 -1.3 0.9 -2.1 0.9H9Zm0 -3h30V9H9v30Z" stroke-width="1"></path>
</svg>