<svg xmlns="http://www.w3.org/2000/svg" fill="none" viewBox="0 0 48 48" id="Design-Services--Streamline-Outlined-Material">
  <desc>
    Design Services Streamline Icon: https://streamlinehq.com
  </desc>
  <path fill="currentColor" d="m17.85 22.35 4.5 -4.5 -3.75 -3.75 -2.4 2.4 -2.1 -2.1 2.4 -2.4 -3.75 -3.7 -4.5 4.5 9.6 9.55Zm17.3 17.4 4.5 -4.55 -3.75 -3.75 -2.4 2.4 -2.1 -2.1 2.4 -2.4 -3.7 -3.7 -4.5 4.5 9.55 9.6ZM13.8 42H6v-7.8l9.7 -9.7L4 12.8 12.7 4l11.8 11.75 8.9 -8.9c0.3 -0.3 0.6333 -0.51667 1 -0.65 0.3667 -0.13333 0.7333 -0.2 1.1 -0.2 0.3667 0 0.7333 0.06667 1.1 0.2 0.3667 0.13333 0.7 0.35 1 0.65l3.55 3.55c0.3 0.3 0.5167 0.6333 0.65 1 0.1333 0.3667 0.2 0.7333 0.2 1.1 0 0.3667 -0.0667 0.7333 -0.2 1.1 -0.1333 0.3667 -0.35 0.7 -0.65 1l-8.9 8.9L44 35.25l-8.75 8.7 -11.7 -11.7L13.8 42ZM9 39h3.5l19.65 -19.7 -3.5 -3.5L9 35.5V39Zm21.4 -21.45 -1.75 -1.75 3.5 3.5 -1.75 -1.75Z" stroke-width="1"></path>
</svg>