<svg xmlns="http://www.w3.org/2000/svg" fill="none" viewBox="0 0 96 96" id="Dribbble-Icon--Streamline-Svg-Logos">
  <desc>
    Dribbble Icon Streamline Icon: https://streamlinehq.com
  </desc>
  <path fill="#e74d89" d="M47.9994 4.17627c24.2344 0 43.8422 19.60783 43.8422 43.80543 0 24.1977 -19.6078 43.8422 -43.8422 43.8422 -24.2344 0 -43.84217 -19.6078 -43.84217 -43.8054 0 -24.1977 19.60777 -43.84223 43.84217 -43.84223Z" stroke-width="1"></path>
  <path fill="#b2215a" d="M48 94.945c-25.9234 0 -47 -21.0398 -47 -46.9265C1 22.095 22.0766 1.05518 48 1.05518S95 22.095 95 47.9817C95 73.8685 73.9234 94.945 48 94.945Zm39.6195 -40.5375c-1.3586 -0.4406 -12.4109 -3.7086 -25.0054 -1.7258 5.2507 14.3938 7.3804 26.1438 7.7843 28.5672C79.4313 75.1903 85.857 65.57 87.6195 54.4075Zm-23.9406 30.55c-0.5875 -3.525 -2.9375 -15.789 -8.5555 -30.4031 -0.0734 0.0367 -0.1836 0.0734 -0.257 0.0734C32.2109 62.5224 24.0961 78.2013 23.3617 79.67c6.793 5.2875 15.3485 8.4453 24.6383 8.4453 5.5445 0.0368 10.8687 -1.1015 15.6789 -3.1578ZM18.1844 74.8599c0.9179 -1.5422 11.9336 -19.7547 32.6429 -26.4743 0.5141 -0.1835 1.0649 -0.3304 1.5789 -0.4773 -0.9914 -2.2766 -2.0929 -4.5531 -3.2679 -6.793 -20.0485 5.9852 -39.50939 5.7282 -41.27189 5.6914 0 0.4039 -0.03672 0.8079 -0.03672 1.2118 0.03672 10.3179 3.92891 19.7179 10.35471 26.8414ZM8.71094 39.8302c1.79926 0.0367 18.32266 0.1101 37.12266 -4.8836 -6.6461 -11.8235 -13.843 -21.7375 -14.8711 -23.1695C19.6898 17.0646 11.318 27.4192 8.71094 39.8302ZM38.6 9.05986c1.1016 1.46874 8.4086 11.38284 14.9812 23.46324 14.2836 -5.3609 20.3055 -13.439 21.0399 -14.4671C67.5344 11.7771 58.2078 7.9583 48 7.9583c-3.2313 0 -6.3891 0.40391 -9.4 1.10156ZM79.0641 22.6825c-0.8446 1.1383 -7.5641 9.7672 -22.3985 15.8258 0.918 1.9094 1.836 3.8555 2.6805 5.8016 0.2937 0.6976 0.5875 1.3953 0.8812 2.0562 13.3657 -1.689 26.6211 1.0281 27.943 1.2852 -0.1101 -9.4367 -3.4883 -18.1391 -9.1062 -24.9688Z" stroke-width="1"></path>
</svg>