<svg xmlns="http://www.w3.org/2000/svg" fill="none" viewBox="0 0 48 48" id="Edit--Streamline-Outlined-Material">
  <desc>
    Edit Streamline Icon: https://streamlinehq.com
  </desc>
  <path fill="currentColor" d="M9 38.9998h2.2l23.6 -23.55 -2.2 -2.2L9 36.7998v2.2Zm-3 3v-6.4l28.75 -28.7c0.2667 -0.26666 0.5833 -0.475 0.95 -0.625 0.3667 -0.15 0.75 -0.225 1.15 -0.225 0.3667 0 0.7333 0.075 1.1 0.225 0.3667 0.15 0.7 0.35834 1 0.625l2.2 2.2c0.3 0.3 0.5167 0.63334 0.65 1 0.1333 0.3667 0.2 0.7333 0.2 1.1 0 0.3667 -0.075 0.7417 -0.225 1.125 -0.15 0.3833 -0.3583 0.7083 -0.625 0.975l-28.75 28.7H6Zm27.7 -27.65 -1.1 -1.1 2.2 2.2 -1.1 -1.1Z" stroke-width="1"></path>
</svg>