<svg xmlns="http://www.w3.org/2000/svg" fill="none" viewBox="0 0 48 48" id="Link--Streamline-Outlined-Material">
  <desc>
    Link Streamline Icon: https://streamlinehq.com
  </desc>
  <path fill="currentColor" d="M22.5 34H14c-2.7667 0 -5.125 -0.975 -7.075 -2.925C4.975 29.125 4 26.7667 4 24s0.975 -5.125 2.925 -7.075C8.875 14.975 11.2333 14 14 14h8.5v3H14c-1.9443 0 -3.5972 0.6793 -4.9585 2.038C7.6805 20.397 7 22.047 7 23.988c0 1.9413 0.6805 3.5953 2.0415 4.962C10.4028 30.3167 12.0557 31 14 31h8.5v3Zm-6.25 -8.5v-3h15.5v3h-15.5ZM25.5 34v-3H34c1.9443 0 3.5972 -0.6793 4.9585 -2.038C40.3195 27.603 41 25.953 41 24.012c0 -1.9413 -0.6805 -3.5953 -2.0415 -4.962C37.5972 17.6833 35.9443 17 34 17h-8.5v-3H34c2.7667 0 5.125 0.975 7.075 2.925C43.025 18.875 44 21.2333 44 24s-0.975 5.125 -2.925 7.075C39.125 33.025 36.7667 34 34 34h-8.5Z" stroke-width="1"></path>
</svg>