<svg xmlns="http://www.w3.org/2000/svg" fill="none" viewBox="0 0 48 48" id="Media-Output--Streamline-Outlined-Material">
  <desc>
    Media Output Streamline Icon: https://streamlinehq.com
  </desc>
  <path fill="currentColor" d="M6.95 40c-0.83333 0 -1.53333 -0.2938 -2.1 -0.8815C4.28333 38.5312 4 37.825 4 37V7c0 -0.825 0.28333 -1.53133 0.85 -2.119C5.41667 4.29367 6.11667 4 6.95 4H27c0.825 0 1.5313 0.29367 2.119 0.881C29.7063 5.46867 30 6.175 30 7v10.125c-0.5333 0.0833 -1.0487 0.1828 -1.546 0.2985 -0.497 0.116 -0.9817 0.2582 -1.454 0.4265V7H6.95v30H17v3H6.95ZM17 34v-2c0 -0.172 0.0083 -0.34 0.025 -0.504 0.0167 -0.164 0.025 -0.3293 0.025 -0.496 -1.1 0 -2.0583 -0.3917 -2.875 -1.175 -0.8167 -0.7833 -1.225 -1.725 -1.225 -2.825 0 -1.111 0.3888 -2.0555 1.1665 -2.8335C14.8945 23.3888 15.839 23 16.95 23c0.4667 0 0.9 0.075 1.3 0.225 0.4 0.15 0.7833 0.3583 1.15 0.625 0.2667 -0.4333 0.55 -0.8417 0.85 -1.225 0.3 -0.3833 0.6333 -0.7583 1 -1.125 -0.6 -0.4667 -1.2583 -0.8333 -1.975 -1.1 -0.7167 -0.2667 -1.4917 -0.4 -2.325 -0.4 -1.9333 0 -3.5833 0.6833 -4.95 2.05 -1.3667 1.3667 -2.05 3.0167 -2.05 4.95 0 1.9237 0.6917 3.5712 2.075 4.9425C13.4083 33.3142 15.0667 34 17 34Zm0 -17c0.8333 0 1.5417 -0.2917 2.125 -0.875 0.5833 -0.5833 0.875 -1.2917 0.875 -2.125 0 -0.8333 -0.2917 -1.5417 -0.875 -2.125C18.5417 11.2917 17.8333 11 17 11c-0.8333 0 -1.5417 0.2917 -2.125 0.875C14.2917 12.4583 14 13.1667 14 14c0 0.8333 0.2917 1.5417 0.875 2.125 0.5833 0.5833 1.2917 0.875 2.125 0.875Zm10 27h-3.5045c-0.9637 0 -1.7872 -0.3427 -2.4705 -1.028C20.3417 42.2863 20 41.4623 20 40.5V32c0 -3.3333 1.1667 -6.1667 3.5 -8.5 2.3333 -2.3333 5.1667 -3.5 8.5 -3.5 3.3333 0 6.1667 1.1667 8.5 3.5 2.3333 2.3333 3.5 5.1667 3.5 8.5v8.5c0 0.9623 -0.3427 1.7863 -1.028 2.472C42.2867 43.6573 41.4627 44 40.5 44H37v-9h5v-3c0 -2.7777 -0.971 -5.1388 -2.913 -7.0835C37.1447 22.9722 34.7863 22 32.012 22c-2.7747 0 -5.137 0.9722 -7.087 2.9165C22.975 26.8612 22 29.2223 22 32v3h5v9Z" stroke-width="1"></path>
</svg>