<svg xmlns="http://www.w3.org/2000/svg" fill="none" viewBox="0 0 48 48" id="Mic--Streamline-Outlined-Material">
  <desc>
    Mic Streamline Icon: https://streamlinehq.com
  </desc>
  <path fill="currentColor" d="M24 26.85c-1.4333 0 -2.6333 -0.5153 -3.6 -1.546 -0.9667 -1.0303 -1.45 -2.2817 -1.45 -3.754V9c0 -1.389 0.4907 -2.5695 1.472 -3.5415C21.4033 4.48617 22.595 4 23.997 4c1.402 0 2.5947 0.48617 3.578 1.4585 0.9833 0.972 1.475 2.1525 1.475 3.5415v12.55c0 1.4723 -0.4833 2.7237 -1.45 3.754 -0.9667 1.0307 -2.1667 1.546 -3.6 1.546ZM22.5 42v-6.8c-3.5333 -0.3667 -6.5 -1.85 -8.9 -4.45 -2.4 -2.6 -3.6 -5.6667 -3.6 -9.2h3c0 3.0333 1.0715 5.5833 3.2145 7.65 2.143 2.0667 4.7347 3.1 7.775 3.1 3.0403 0 5.6355 -1.0333 7.7855 -3.1C33.925 27.1333 35 24.5833 35 21.55h3c0 3.5333 -1.2 6.6 -3.6 9.2 -2.4 2.6 -5.3667 4.0833 -8.9 4.45V42h-3ZM24 23.85c0.6 0 1.0917 -0.225 1.475 -0.675 0.3833 -0.45 0.575 -0.9917 0.575 -1.625V9c0 -0.56667 -0.1965 -1.04167 -0.5895 -1.425C25.0675 7.19167 24.5807 7 24 7c-0.5807 0 -1.0675 0.19167 -1.4605 0.575 -0.393 0.38333 -0.5895 0.85833 -0.5895 1.425v12.55c0 0.6333 0.1917 1.175 0.575 1.625 0.3833 0.45 0.875 0.675 1.475 0.675Z" stroke-width="1"></path>
</svg>