<svg xmlns="http://www.w3.org/2000/svg" fill="none" viewBox="0 0 48 48" id="Newsmode--Streamline-Outlined-Material">
  <desc>
    Newsmode Streamline Icon: https://streamlinehq.com
  </desc>
  <path fill="currentColor" d="M7 42c-0.8 0 -1.5 -0.3 -2.1 -0.9 -0.6 -0.6 -0.9 -1.3 -0.9 -2.1V9c0 -0.8 0.3 -1.5 0.9 -2.1C5.5 6.3 6.2 6 7 6h34c0.8 0 1.5 0.3 2.1 0.9 0.6 0.6 0.9 1.3 0.9 2.1v30c0 0.8 -0.3 1.5 -0.9 2.1 -0.6 0.6 -1.3 0.9 -2.1 0.9H7Zm0 -3h34V9H7v30Zm5.45 -5.3h23.1v-3h-23.1v3Zm0 -8.3h7.75V14.3h-7.75v11.1Zm12.95 0h10.15v-3H25.4v3Zm0 -8.1h10.15v-3H25.4v3Z" stroke-width="1"></path>
</svg>