<svg xmlns="http://www.w3.org/2000/svg" fill="none" viewBox="0 0 48 48" id="Open-In-New--Streamline-Outlined-Material">
  <desc>
    Open In New Streamline Icon: https://streamlinehq.com
  </desc>
  <path fill="currentColor" d="M9 42c-0.8 0 -1.5 -0.3 -2.1 -0.9 -0.6 -0.6 -0.9 -1.3 -0.9 -2.1V9c0 -0.8 0.3 -1.5 0.9 -2.1C7.5 6.3 8.2 6 9 6h13.95v3H9v30h30V25.05h3V39c0 0.8 -0.3 1.5 -0.9 2.1 -0.6 0.6 -1.3 0.9 -2.1 0.9H9Zm10.1 -10.95L17 28.9 36.9 9H25.95V6H42v16.05h-3v-10.9l-19.9 19.9Z" stroke-width="1"></path>
</svg>