<svg xmlns="http://www.w3.org/2000/svg" fill="none" viewBox="0 0 48 48" id="Pause-Circle--Streamline-Outlined-Material">
  <desc>
    Pause Circle Streamline Icon: https://streamlinehq.com
  </desc>
  <path fill="currentColor" d="M18.5 32h3V16h-3v16Zm8 0h3V16h-3v16ZM24 44c-2.7333 0 -5.3167 -0.525 -7.75 -1.575 -2.4333 -1.05 -4.5583 -2.4833 -6.375 -4.3 -1.81667 -1.8167 -3.25 -3.9417 -4.3 -6.375C4.525 29.3167 4 26.7333 4 24c0 -2.7667 0.525 -5.3667 1.575 -7.8 1.05 -2.4333 2.48333 -4.55 4.3 -6.35 1.8167 -1.8 3.9417 -3.225 6.375 -4.275C18.6833 4.525 21.2667 4 24 4c2.7667 0 5.3667 0.525 7.8 1.575 2.4333 1.05 4.55 2.475 6.35 4.275 1.8 1.8 3.225 3.9167 4.275 6.35C43.475 18.6333 44 21.2333 44 24c0 2.7333 -0.525 5.3167 -1.575 7.75 -1.05 2.4333 -2.475 4.5583 -4.275 6.375 -1.8 1.8167 -3.9167 3.25 -6.35 4.3C29.3667 43.475 26.7667 44 24 44Zm0 -3c4.7333 0 8.75 -1.6583 12.05 -4.975C39.35 32.7083 41 28.7 41 24c0 -4.7333 -1.65 -8.75 -4.95 -12.05C32.75 8.65 28.7333 7 24 7c-4.7 0 -8.7083 1.65 -12.025 4.95C8.65833 15.25 7 19.2667 7 24c0 4.7 1.65833 8.7083 4.975 12.025C15.2917 39.3417 19.3 41 24 41Z" stroke-width="1"></path>
</svg>