<svg xmlns="http://www.w3.org/2000/svg" fill="none" viewBox="0 0 96 96" id="Pinterest--Streamline-Svg-Logos">
  <desc>
    Pinterest Streamline Icon: https://streamlinehq.com
  </desc>
  <path fill="#cb1f27" d="M1.00098 47.9995c0 19.2452 11.57272 35.7785 28.13272 43.0475 -0.1321 -3.2819 -0.0235 -7.2217 0.8181 -10.7925 0.9036 -3.8153 6.0474 -25.6099 6.0474 -25.6099s-1.5014 -3.0009 -1.5014 -7.436c0 -6.965 4.0368 -12.1668 9.0642 -12.1668 4.275 0 6.3404 3.2109 6.3404 7.056 0 4.2975 -2.741 10.7256 -4.1506 16.6794 -1.1775 4.9855 2.4998 9.052 7.4181 9.052 8.9048 0 14.9023 -11.4372 14.9023 -24.9882 0 -10.3008 -6.9378 -18.0108 -19.5566 -18.0108 -14.2568 0 -23.1384 10.632 -23.1384 22.508 0 4.0947 1.2072 6.9822 3.0982 9.2183 0.8695 1.027 0.9903 1.4401 0.6756 2.6195 -0.2254 0.8647 -0.7432 2.9466 -0.9576 3.7716 -0.3128 1.1904 -1.2774 1.616 -2.3532 1.1765 -6.5666 -2.6808 -9.6249 -9.872 -9.6249 -17.9558 0 -13.3509 11.2599 -29.3598 33.5902 -29.3598 17.9439 0 29.7542 12.9848 29.7542 26.9232 0 18.4371 -10.2501 32.2111 -25.3595 32.2111 -5.074 0 -9.8469 -2.7429 -11.482 -5.8584 0 0 -2.7285 10.8288 -3.3064 12.9199 -0.9965 3.6237 -2.947 7.2455 -4.7304 10.0684C38.9084 94.3204 43.3736 95 48.0015 95c25.9536 0 46.9973 -21.0426 46.9973 -47.0005C94.9988 22.0426 73.9551 1 48.0015 1 22.0454 1 1.00098 22.0426 1.00098 47.9995Z" stroke-width="1"></path>
</svg>