<svg xmlns="http://www.w3.org/2000/svg" fill="none" viewBox="0 0 96 96" id="Reddit-Icon--Streamline-Svg-Logos">
  <desc>
    Reddit Icon Streamline Icon: https://streamlinehq.com
  </desc>
  <path fill="#ff4500" d="M48 95c25.9574 0 47 -21.0426 47 -47S73.9574 1 48 1 1 22.0426 1 48s21.0426 47 47 47Z" stroke-width="1"></path>
  <path fill="#ffffff" d="M79.2658 48.4482c0 -3.8101 -3.0811 -6.8359 -6.8359 -6.8359 -1.8486 0 -3.5302 0.728 -4.7626 1.9051 -4.7063 -3.3621 -11.1505 -5.5471 -18.3227 -5.827l3.1375 -14.6807 10.1979 2.185c0.1128 2.5777 2.2414 4.6509 4.8755 4.6509 2.6895 0 4.8744 -2.185 4.8744 -4.8755 0 -2.6894 -2.1849 -4.8744 -4.8744 -4.8744 -1.9051 0 -3.5866 1.1207 -4.371 2.7458l-11.374 -2.4095c-0.3363 -0.0564 -0.6726 0 -0.8972 0.1682 -0.2799 0.1681 -0.448 0.448 -0.5034 0.7843L46.935 37.7458c-7.2839 0.2245 -13.8399 2.4095 -18.6026 5.828 -1.2324 -1.1771 -2.914 -1.9051 -4.7626 -1.9051 -3.8102 0 -6.8359 3.0811 -6.8359 6.8359 0 2.8012 1.6805 5.1543 4.0347 6.2197 -0.1128 0.6715 -0.1682 1.3442 -0.1682 2.0732 0 10.5332 12.2712 19.1071 27.4 19.1071 15.1288 0 27.3999 -8.5175 27.3999 -19.1071 0 -0.6726 -0.0564 -1.4017 -0.1681 -2.0732 2.3531 -1.0654 4.0336 -3.4749 4.0336 -6.2761Zm-46.9551 4.8744c0 -2.6894 2.185 -4.8744 4.8755 -4.8744 2.6894 0 4.8744 2.185 4.8744 4.8744 0 2.6895 -2.185 4.8755 -4.8744 4.8755 -2.6905 0.0553 -4.8755 -2.186 -4.8755 -4.8755Zm27.2882 12.9438c-3.362 3.3621 -9.7499 3.5866 -11.5985 3.5866 -1.9051 0 -8.2929 -0.2809 -11.5996 -3.5866 -0.5034 -0.5045 -0.5034 -1.2888 0 -1.7933 0.5044 -0.5034 1.2888 -0.5034 1.7933 0 2.1296 2.1296 6.6124 2.8576 9.8063 2.8576s7.732 -0.728 9.8052 -2.8576c0.5045 -0.5034 1.2889 -0.5034 1.7933 0 0.4481 0.5045 0.4481 1.2888 0 1.7933Zm-0.8971 -8.013c-2.6895 0 -4.8745 -2.1849 -4.8745 -4.8744 0 -2.6894 2.185 -4.8744 4.8745 -4.8744 2.6904 0 4.8754 2.185 4.8754 4.8744 0 2.6331 -2.185 4.8744 -4.8754 4.8744Z" stroke-width="1"></path>
</svg>