<svg xmlns="http://www.w3.org/2000/svg" fill="none" viewBox="0 0 48 48" id="Save--Streamline-Outlined-Material">
  <desc>
    Save Streamline Icon: https://streamlinehq.com
  </desc>
  <path fill="currentColor" d="M42 13.85V39c0 0.8 -0.3 1.5 -0.9 2.1 -0.6 0.6 -1.3 0.9 -2.1 0.9H9c-0.8 0 -1.5 -0.3 -2.1 -0.9 -0.6 -0.6 -0.9 -1.3 -0.9 -2.1V9c0 -0.8 0.3 -1.5 0.9 -2.1C7.5 6.3 8.2 6 9 6h25.15L42 13.85Zm-3 1.35L32.8 9H9v30h30V15.2ZM23.988 35.75c1.4413 0 2.6703 -0.5043 3.687 -1.513 1.0167 -1.009 1.525 -2.234 1.525 -3.675 0 -1.4413 -0.5043 -2.6703 -1.513 -3.687 -1.009 -1.0167 -2.234 -1.525 -3.675 -1.525 -1.4413 0 -2.6703 0.5043 -3.687 1.513 -1.0167 1.009 -1.525 2.234 -1.525 3.675 0 1.4413 0.5043 2.6703 1.513 3.687 1.009 1.0167 2.234 1.525 3.675 1.525ZM11.65 18.8h17.9v-7.15h-17.9v7.15ZM9 15.2V39v6.2Z" stroke-width="1"></path>
</svg>