<svg xmlns="http://www.w3.org/2000/svg" fill="none" viewBox="0 0 48 48" id="Share--Streamline-Outlined-Material">
  <desc>
    Share Streamline Icon: https://streamlinehq.com
  </desc>
  <path fill="currentColor" d="M36.35 44c-1.5833 0 -2.9292 -0.5558 -4.0375 -1.6675 -1.1083 -1.1113 -1.6625 -2.461 -1.6625 -4.049 0 -0.2223 0.025 -0.4942 0.075 -0.8155 0.05 -0.3217 0.125 -0.611 0.225 -0.868L15.8 27.8c-0.5 0.5667 -1.1167 1.025 -1.85 1.375 -0.7333 0.35 -1.4833 0.525 -2.25 0.525 -1.5833 0 -2.92917 -0.5542 -4.0375 -1.6625C6.55417 26.9292 6 25.5833 6 24c0 -1.5833 0.55417 -2.9292 1.6625 -4.0375C8.77083 18.8542 10.1167 18.3 11.7 18.3c0.7667 0 1.5 0.15 2.2 0.45 0.7 0.3 1.3333 0.7333 1.9 1.3l15.15 -8.7c-0.1 -0.2357 -0.175 -0.5008 -0.225 -0.7955 -0.05 -0.2947 -0.075 -0.5795 -0.075 -0.8545 0 -1.58333 0.5542 -2.92917 1.6625 -4.0375C33.4208 4.55417 34.7667 4 36.35 4c1.5833 0 2.9292 0.55417 4.0375 1.6625C41.4958 6.77083 42.05 8.11667 42.05 9.7c0 1.5833 -0.5542 2.9292 -1.6625 4.0375C39.2792 14.8458 37.9333 15.4 36.35 15.4c-0.7783 0 -1.523 -0.125 -2.234 -0.375 -0.7107 -0.25 -1.316 -0.6583 -1.816 -1.225l-15.15 8.4c0.0667 0.2667 0.125 0.575 0.175 0.925 0.05 0.35 0.075 0.6457 0.075 0.887 0 0.2413 -0.025 0.4913 -0.075 0.75 -0.05 0.2587 -0.1083 0.5213 -0.175 0.788l15.15 8.6c0.5 -0.4667 1.0833 -0.8417 1.75 -1.125 0.6667 -0.2833 1.4333 -0.425 2.3 -0.425 1.5833 0 2.9292 0.5542 4.0375 1.6625C41.4958 35.3708 42.05 36.7167 42.05 38.3c0 1.5833 -0.5542 2.9292 -1.6625 4.0375C39.2792 43.4458 37.9333 44 36.35 44Zm0.002 -31.6c0.7653 0 1.4063 -0.259 1.923 -0.777 0.5167 -0.5177 0.775 -1.1593 0.775 -1.925 0 -0.76533 -0.259 -1.40633 -0.777 -1.923C37.7553 7.25833 37.1137 7 36.348 7c-0.7653 0 -1.4063 0.259 -1.923 0.777 -0.5167 0.51767 -0.775 1.15933 -0.775 1.925 0 0.7653 0.259 1.4063 0.777 1.923 0.5177 0.5167 1.1593 0.775 1.925 0.775Zm-24.65 14.3c0.7653 0 1.4063 -0.259 1.923 -0.777 0.5167 -0.5177 0.775 -1.1593 0.775 -1.925 0 -0.7653 -0.259 -1.4063 -0.777 -1.923 -0.5177 -0.5167 -1.1593 -0.775 -1.925 -0.775 -0.7653 0 -1.4063 0.259 -1.923 0.777 -0.51667 0.5177 -0.775 1.1593 -0.775 1.925 0 0.7653 0.259 1.4063 0.777 1.923 0.5177 0.5167 1.1593 0.775 1.925 0.775ZM36.352 41c0.7653 0 1.4063 -0.259 1.923 -0.777 0.5167 -0.5177 0.775 -1.1593 0.775 -1.925 0 -0.7653 -0.259 -1.4063 -0.777 -1.923 -0.5177 -0.5167 -1.1593 -0.775 -1.925 -0.775 -0.7653 0 -1.4063 0.259 -1.923 0.777 -0.5167 0.5177 -0.775 1.1593 -0.775 1.925 0 0.7653 0.259 1.4063 0.777 1.923 0.5177 0.5167 1.1593 0.775 1.925 0.775Z" stroke-width="1"></path>
</svg>