<svg xmlns="http://www.w3.org/2000/svg" fill="none" viewBox="0 0 96 96" id="Spotify-Icon--Streamline-Svg-Logos">
  <desc>
    Spotify Icon Streamline Icon: https://streamlinehq.com
  </desc>
  <path fill="#1ed760" d="M47.9997 1C22.043 1 1 22.043 1 48.0003 1 73.9587 22.043 95 47.9997 95 73.9592 95 95 73.9587 95 48.0003 95 22.0447 73.9592 1.00225 47.9992 1.00225L47.9997 1Zm21.5538 67.7879c-0.8419 1.3807 -2.6491 1.8184 -4.0297 0.971 -11.0351 -6.7407 -24.9268 -8.2673 -41.2869 -4.5293 -1.5765 0.3592 -3.148 -0.6286 -3.5072 -2.2058 -0.3608 -1.5771 0.623 -3.1486 2.2035 -3.5078 17.9034 -4.0904 33.2606 -2.3292 45.6493 5.2421 1.3807 0.8475 1.8185 2.6491 0.971 4.0298Zm5.7527 -12.7976c-1.0608 1.7241 -3.3169 2.2685 -5.0399 1.2078 -12.6335 -7.7655 -31.8912 -10.0144 -46.8342 -5.4784 -1.9379 0.5854 -3.9848 -0.5068 -4.573 -2.4415 -0.5836 -1.938 0.5091 -3.9809 2.4437 -4.5702 17.0689 -5.1792 38.2887 -2.6705 52.7967 6.245 1.723 1.0608 2.2674 3.317 1.2067 5.0378v-0.0005Zm0.4939 -13.3264c-15.1478 -8.9974 -40.1397 -9.8247 -54.6023 -5.4351 -2.3224 0.7043 -4.7784 -0.6068 -5.4821 -2.9292 -0.7038 -2.3236 0.6061 -4.7779 2.9302 -5.484 16.6019 -5.04 44.2008 -4.0663 61.6407 6.2871 2.0934 1.2398 2.7781 3.9378 1.5378 6.0239 -1.2347 2.089 -3.9399 2.7777 -6.0221 1.5373h-0.0022Z" stroke-width="1"></path>
</svg>