<svg viewBox="0 0 48 48" fill="none" xmlns="http://www.w3.org/2000/svg" id="Tabs--Streamline-Outlined-Material">
  <desc>
    Tabs Streamline Icon: https://streamlinehq.com
  </desc>
  <g id="tabs">
    <path id="Vector" d="M9 42c-0.8 0 -1.5 -0.3 -2.1 -0.9 -0.6 -0.6 -0.9 -1.3 -0.9 -2.1V9c0 -0.8 0.3 -1.5 0.9 -2.1C7.5 6.3 8.2 6 9 6h30c0.8 0 1.5 0.3 2.1 0.9 0.6 0.6 0.9 1.3 0.9 2.1v30c0 0.8 -0.3 1.5 -0.9 2.1 -0.6 0.6 -1.3 0.9 -2.1 0.9H9Zm0 -3h30V23.35H9V39Zm0 -18.65h30V9H9v11.35Zm19.05 -6.85h9.45v-3h-9.45v3Z" fill="currentColor" stroke-width="1"></path>
  </g>
</svg>