<svg xmlns="http://www.w3.org/2000/svg" fill="none" viewBox="0 0 48 48" id="Timer--Streamline-Outlined-Material">
  <desc>
    Timer Streamline Icon: https://streamlinehq.com
  </desc>
  <path fill="currentColor" d="M18 5V2h12v3H18Zm4.5 22.35h3v-11.5h-3v11.5Zm1.5 16.6c-2.4667 0 -4.7917 -0.475 -6.975 -1.425 -2.1833 -0.95 -4.0917 -2.2417 -5.725 -3.875 -1.63333 -1.6333 -2.925 -3.5417 -3.875 -5.725C6.475 30.7417 6 28.4167 6 25.95c0 -2.4667 0.475 -4.7917 1.425 -6.975 0.95 -2.1833 2.24167 -4.0917 3.875 -5.725 1.6333 -1.6333 3.5417 -2.925 5.725 -3.875C19.2083 8.425 21.5333 7.95 24 7.95c2.2333 0 4.3333 0.375 6.3 1.125 1.9667 0.75 3.7167 1.7917 5.25 3.125l2.55 -2.55 2.1 2.1 -2.55 2.55c1.2 1.3333 2.225 2.95 3.075 4.85 0.85 1.9 1.275 4.1667 1.275 6.8 0 2.4667 -0.475 4.7917 -1.425 6.975 -0.95 2.1833 -2.2417 4.0917 -3.875 5.725 -1.6333 1.6333 -3.5417 2.925 -5.725 3.875 -2.1833 0.95 -4.5083 1.425 -6.975 1.425Zm0 -3c4.1667 0 7.7083 -1.4583 10.625 -4.375C37.5417 33.6583 39 30.1167 39 25.95s-1.4583 -7.7083 -4.375 -10.625C31.7083 12.4083 28.1667 10.95 24 10.95s-7.7083 1.4583 -10.625 4.375C10.4583 18.2417 9 21.7833 9 25.95s1.4583 7.7083 4.375 10.625C16.2917 39.4917 19.8333 40.95 24 40.95Z" stroke-width="1"></path>
</svg>