<svg xmlns="http://www.w3.org/2000/svg" fill="none" viewBox="0 0 48 48" id="Travel-Explore--Streamline-Outlined-Material">
  <desc>
    Travel Explore Streamline Icon: https://streamlinehq.com
  </desc>
  <path fill="currentColor" d="M22.9 43.95c-2.6333 -0.1333 -5.1 -0.75 -7.4 -1.85 -2.3 -1.1 -4.3 -2.5417 -6 -4.325 -1.7 -1.7833 -3.04167 -3.8545 -4.025 -6.2135C4.49167 29.2025 4 26.682 4 24c0 -2.7667 0.525 -5.3667 1.575 -7.8 1.05 -2.4333 2.475 -4.55 4.275 -6.35 1.8 -1.8 3.9167 -3.225 6.35 -4.275C18.6333 4.525 21.2333 4 24 4c4.9667 0 9.2833 1.56667 12.95 4.7 3.6667 3.1333 5.9167 7.0667 6.75 11.8h-3.05c-0.5667 -2.8 -1.75 -5.3 -3.55 -7.5 -1.8 -2.2 -4.05 -3.85 -6.75 -4.95v0.9c0 1.1667 -0.4 2.1833 -1.2 3.05 -0.8 0.8667 -1.7833 1.3 -2.95 1.3h-4.35v4.35c0 0.5527 -0.225 1.0158 -0.675 1.3895 -0.45 0.3737 -0.9583 0.5605 -1.525 0.5605H15.5V24H21v6.25h-3.35l-10.2 -10.2c-0.16667 0.6667 -0.28333 1.3278 -0.35 1.9835C7.03333 22.6888 7 23.3443 7 24c0 4.5 1.51667 8.3833 4.55 11.65 3.0333 3.2667 6.8167 5.0333 11.35 5.3v3Zm19.6 -1.3 -6.7 -6.7c-0.7 0.5 -1.4583 0.8833 -2.275 1.15 -0.8167 0.2667 -1.6512 0.4 -2.5035 0.4 -2.367 0 -4.379 -0.827 -6.036 -2.481S22.5 31.3567 22.5 28.994c0 -2.3627 0.827 -4.369 2.481 -6.019 1.654 -1.65 3.6623 -2.475 6.025 -2.475 2.3627 0 4.369 0.8285 6.019 2.4855 1.65 1.657 2.475 3.669 2.475 6.036 0 0.8523 -0.1417 1.6868 -0.425 2.5035 -0.2833 0.8167 -0.6583 1.5917 -1.125 2.325l6.7 6.65 -2.15 2.15ZM30.993 34.5c1.538 0 2.8403 -0.531 3.907 -1.593 1.0667 -1.062 1.6 -2.362 1.6 -3.9 0 -1.538 -0.531 -2.8403 -1.593 -3.907 -1.062 -1.0667 -2.362 -1.6 -3.9 -1.6 -1.538 0 -2.8403 0.531 -3.907 1.593 -1.0667 1.062 -1.6 2.362 -1.6 3.9 0 1.538 0.531 2.8403 1.593 3.907 1.062 1.0667 2.362 1.6 3.9 1.6Z" stroke-width="1"></path>
</svg>