<svg xmlns="http://www.w3.org/2000/svg" fill="none" viewBox="0 0 96 96" id="Vimeo-Icon--Streamline-Svg-Logos">
  <desc>
    Vimeo Icon Streamline Icon: https://streamlinehq.com
  </desc>
  <path fill="#32b8e8" d="M94.9545 26.1138c-0.4183 9.1679 -6.8094 21.7217 -19.1704 37.6548 -12.7804 16.6437 -23.5932 24.9647 -32.4387 24.9647 -5.4774 0 -10.1164 -5.0667 -13.9027 -15.2037 -2.5305 -9.292 -5.0582 -18.583 -7.5877 -27.8749 -2.8135 -10.1314 -5.8299 -15.2037 -9.0551 -15.2037 -0.7031 0 -3.16406 1.4824 -7.37717 4.4359L1 29.1782c4.63893 -4.0843 9.2158 -8.1677 13.7184 -12.2567 6.1872 -5.3571 10.8317 -8.1743 13.9272 -8.45912 7.316 -0.70406 11.8187 4.30612 13.5088 15.03162 1.8264 11.5715 3.0898 18.7691 3.8004 21.5863 2.1085 9.6003 4.4284 14.3943 6.9636 14.3943 1.9674 0 4.9228 -3.1133 8.8633 -9.3399 3.9368 -6.2285 6.0452 -10.967 6.33 -14.2223 0.5603 -5.3749 -1.5491 -8.069 -6.33 -8.069 -2.2503 0 -4.5703 0.5189 -6.957 1.5445C59.4439 14.2265 68.2706 6.86343 81.2991 7.28361c9.6585 0.28389 14.2119 6.56029 13.6554 18.83019Z" stroke-width="1"></path>
</svg>