<svg xmlns="http://www.w3.org/2000/svg" fill="none" viewBox="0 0 48 48" id="Volume-Off--Streamline-Outlined-Material">
  <desc>
    Volume Off Streamline Icon: https://streamlinehq.com
  </desc>
  <path fill="currentColor" d="m40.6502 45.1996 -6.6 -6.6c-0.9333 0.6667 -1.9417 1.2417 -3.025 1.725 -1.0833 0.4833 -2.2083 0.8583 -3.375 1.125v-3.1c0.7667 -0.2333 1.5083 -0.4917 2.225 -0.775 0.7167 -0.2833 1.3917 -0.6583 2.025 -1.125l-8.25 -8.3v11.85l-10 -10h-8v-12h7.8l-11 -10.99999 2.15 -2.15 38.2 38.14999 -2.15 2.2Zm-1.8 -11.6 -2.15 -2.15c0.6667 -1.1333 1.1583 -2.332 1.475 -3.596 0.3167 -1.2643 0.475 -2.5657 0.475 -3.904 0 -3.444 -1 -6.5217 -3 -9.233 -2 -2.7113 -4.6667 -4.4337 -8 -5.16699v-3.1c4.1333 0.93333 7.5 3.025 10.1 6.27499 2.6 3.25 3.9 6.9917 3.9 11.225 0 1.7 -0.2333 3.3667 -0.7 5 -0.4667 1.6333 -1.1667 3.1833 -2.1 4.65Zm-6.7 -6.7 -4.5 -4.5v-6.5c1.5667 0.7333 2.7917 1.8333 3.675 3.3 0.8833 1.4667 1.325 3.0667 1.325 4.8 0 0.5 -0.0417 0.9917 -0.125 1.475 -0.0833 0.4833 -0.2083 0.9583 -0.375 1.425Zm-8.5 -8.5 -5.2 -5.2 5.2 -5.19999V18.3996Zm-3 14.3v-7.5l-4.2 -4.2h-7.8v6h6.3l5.7 5.7Z" stroke-width="1"></path>
</svg>