<svg xmlns="http://www.w3.org/2000/svg" xmlns:xlink="http://www.w3.org/1999/xlink" width="500" zoomAndPan="magnify" viewBox="0 0 375 374.999991" height="500" preserveAspectRatio="xMidYMid meet" version="1.0"><defs><clipPath id="ce976cb2b3"><path d="M 37.5 37.5 L 337.5 37.5 L 337.5 337.5 L 37.5 337.5 Z M 37.5 37.5 " clip-rule="nonzero"/></clipPath></defs><g clip-path="url(#ce976cb2b3)"><path fill="#0072ff" d="M 37.5 37.5 L 337.5 37.5 L 337.5 337.5 L 37.5 337.5 L 37.5 37.5 " fill-opacity="1" fill-rule="nonzero"/></g><path fill="#ffffff" d="M 353.167969 -52.601562 L 21.625 -52.601562 C 20.410156 -52.601562 19.195312 -52.574219 17.984375 -52.511719 C 16.769531 -52.453125 15.558594 -52.363281 14.351562 -52.246094 C 13.140625 -52.125 11.9375 -51.976562 10.734375 -51.800781 C 9.53125 -51.621094 8.335938 -51.414062 7.144531 -51.175781 C 5.953125 -50.9375 4.769531 -50.671875 3.589844 -50.378906 C 2.410156 -50.082031 1.242188 -49.757812 0.078125 -49.40625 C -1.082031 -49.054688 -2.238281 -48.671875 -3.378906 -48.261719 C -4.523438 -47.855469 -5.65625 -47.417969 -6.78125 -46.953125 C -7.902344 -46.488281 -9.011719 -45.996094 -10.109375 -45.476562 C -11.207031 -44.957031 -12.292969 -44.410156 -13.363281 -43.835938 C -14.4375 -43.265625 -15.492188 -42.667969 -16.535156 -42.042969 C -17.578125 -41.417969 -18.601562 -40.769531 -19.613281 -40.09375 C -20.625 -39.417969 -21.617188 -38.71875 -22.59375 -37.996094 C -23.566406 -37.269531 -24.523438 -36.523438 -25.464844 -35.753906 C -26.402344 -34.984375 -27.324219 -34.191406 -28.222656 -33.375 C -29.121094 -32.558594 -30.003906 -31.71875 -30.863281 -30.863281 C -31.71875 -30.003906 -32.558594 -29.121094 -33.375 -28.222656 C -34.191406 -27.324219 -34.984375 -26.402344 -35.753906 -25.464844 C -36.523438 -24.523438 -37.269531 -23.566406 -37.996094 -22.59375 C -38.71875 -21.617188 -39.417969 -20.625 -40.09375 -19.613281 C -40.769531 -18.601562 -41.417969 -17.578125 -42.042969 -16.535156 C -42.667969 -15.492188 -43.265625 -14.4375 -43.835938 -13.363281 C -44.410156 -12.292969 -44.957031 -11.207031 -45.476562 -10.109375 C -45.996094 -9.011719 -46.488281 -7.902344 -46.953125 -6.78125 C -47.417969 -5.65625 -47.855469 -4.523438 -48.261719 -3.378906 C -48.671875 -2.238281 -49.054688 -1.082031 -49.40625 0.078125 C -49.757812 1.242188 -50.082031 2.410156 -50.378906 3.589844 C -50.671875 4.769531 -50.9375 5.953125 -51.175781 7.144531 C -51.414062 8.335938 -51.621094 9.53125 -51.800781 10.734375 C -51.976562 11.9375 -52.125 13.140625 -52.246094 14.351562 C -52.363281 15.558594 -52.453125 16.769531 -52.511719 17.984375 C -52.574219 19.195312 -52.601562 20.410156 -52.601562 21.625 L -52.601562 353.167969 C -52.601562 354.382812 -52.574219 355.597656 -52.511719 356.8125 C -52.453125 358.023438 -52.363281 359.234375 -52.246094 360.445312 C -52.125 361.652344 -51.976562 362.859375 -51.800781 364.058594 C -51.621094 365.261719 -51.414062 366.457031 -51.175781 367.648438 C -50.9375 368.839844 -50.671875 370.027344 -50.378906 371.203125 C -50.082031 372.382812 -49.757812 373.554688 -49.40625 374.714844 C -49.054688 375.878906 -48.671875 377.03125 -48.261719 378.175781 C -47.855469 379.320312 -47.417969 380.453125 -46.953125 381.574219 C -46.488281 382.695312 -45.996094 383.808594 -45.476562 384.90625 C -44.957031 386.003906 -44.410156 387.089844 -43.835938 388.160156 C -43.265625 389.230469 -42.667969 390.289062 -42.042969 391.328125 C -41.417969 392.371094 -40.769531 393.398438 -40.09375 394.40625 C -39.417969 395.417969 -38.71875 396.410156 -37.996094 397.386719 C -37.269531 398.363281 -36.523438 399.320312 -35.753906 400.257812 C -34.984375 401.199219 -34.191406 402.117188 -33.375 403.019531 C -32.558594 403.917969 -31.71875 404.796875 -30.863281 405.65625 C -30.003906 406.515625 -29.121094 407.351562 -28.222656 408.167969 C -27.324219 408.984375 -26.402344 409.777344 -25.464844 410.546875 C -24.523438 411.320312 -23.566406 412.066406 -22.59375 412.789062 C -21.617188 413.511719 -20.625 414.210938 -19.613281 414.886719 C -18.601562 415.5625 -17.578125 416.210938 -16.535156 416.835938 C -15.492188 417.460938 -14.4375 418.058594 -13.363281 418.632812 C -12.292969 419.207031 -11.207031 419.75 -10.109375 420.269531 C -9.011719 420.789062 -7.902344 421.28125 -6.78125 421.746094 C -5.65625 422.210938 -4.523438 422.648438 -3.378906 423.058594 C -2.238281 423.46875 -1.082031 423.847656 0.078125 424.199219 C 1.242188 424.554688 2.410156 424.878906 3.589844 425.171875 C 4.769531 425.46875 5.953125 425.734375 7.144531 425.972656 C 8.335938 426.207031 9.53125 426.414062 10.734375 426.59375 C 11.9375 426.773438 13.140625 426.921875 14.351562 427.039062 C 15.558594 427.160156 16.769531 427.25 17.984375 427.308594 C 19.195312 427.367188 20.410156 427.398438 21.625 427.398438 L 353.167969 427.398438 C 354.382812 427.398438 355.597656 427.367188 356.8125 427.308594 C 358.023438 427.25 359.234375 427.160156 360.445312 427.039062 C 361.652344 426.921875 362.859375 426.773438 364.058594 426.59375 C 365.261719 426.414062 366.457031 426.207031 367.648438 425.972656 C 368.839844 425.734375 370.027344 425.46875 371.203125 425.171875 C 372.382812 424.878906 373.554688 424.554688 374.714844 424.199219 C 375.878906 423.847656 377.03125 423.46875 378.175781 423.058594 C 379.320312 422.648438 380.453125 422.210938 381.574219 421.746094 C 382.695312 421.28125 383.808594 420.789062 384.90625 420.269531 C 386.003906 419.75 387.089844 419.207031 388.160156 418.632812 C 389.230469 418.058594 390.289062 417.460938 391.328125 416.835938 C 392.371094 416.210938 393.398438 415.5625 394.40625 414.886719 C 395.417969 414.210938 396.410156 413.511719 397.386719 412.789062 C 398.363281 412.066406 399.320312 411.320312 400.257812 410.546875 C 401.199219 409.777344 402.117188 408.984375 403.019531 408.167969 C 403.917969 407.351562 404.796875 406.515625 405.65625 405.65625 C 406.515625 404.796875 407.351562 403.917969 408.167969 403.019531 C 408.984375 402.117188 409.777344 401.199219 410.546875 400.257812 C 411.320312 399.320312 412.066406 398.363281 412.789062 397.386719 C 413.511719 396.410156 414.210938 395.417969 414.886719 394.40625 C 415.5625 393.398438 416.210938 392.371094 416.835938 391.328125 C 417.460938 390.289062 418.058594 389.230469 418.632812 388.160156 C 419.207031 387.089844 419.75 386.003906 420.269531 384.90625 C 420.789062 383.808594 421.28125 382.695312 421.746094 381.574219 C 422.210938 380.453125 422.648438 379.320312 423.058594 378.175781 C 423.46875 377.03125 423.847656 375.878906 424.199219 374.714844 C 424.554688 373.554688 424.878906 372.382812 425.171875 371.203125 C 425.46875 370.027344 425.734375 368.839844 425.972656 367.648438 C 426.207031 366.457031 426.414062 365.261719 426.59375 364.058594 C 426.773438 362.859375 426.921875 361.652344 427.039062 360.445312 C 427.160156 359.234375 427.25 358.023438 427.308594 356.8125 C 427.367188 355.597656 427.398438 354.382812 427.398438 353.167969 L 427.398438 21.625 C 427.398438 20.410156 427.367188 19.195312 427.308594 17.984375 C 427.25 16.769531 427.160156 15.558594 427.039062 14.351562 C 426.921875 13.140625 426.773438 11.9375 426.59375 10.734375 C 426.414062 9.53125 426.207031 8.335938 425.972656 7.144531 C 425.734375 5.953125 425.46875 4.769531 425.171875 3.589844 C 424.878906 2.410156 424.554688 1.242188 424.199219 0.078125 C 423.847656 -1.082031 423.46875 -2.238281 423.058594 -3.378906 C 422.648438 -4.523438 422.210938 -5.65625 421.746094 -6.78125 C 421.28125 -7.902344 420.789062 -9.011719 420.269531 -10.109375 C 419.75 -11.207031 419.207031 -12.292969 418.632812 -13.363281 C 418.058594 -14.4375 417.460938 -15.492188 416.835938 -16.535156 C 416.210938 -17.578125 415.5625 -18.601562 414.886719 -19.613281 C 414.210938 -20.625 413.511719 -21.617188 412.789062 -22.59375 C 412.066406 -23.566406 411.320312 -24.523438 410.546875 -25.464844 C 409.777344 -26.402344 408.984375 -27.324219 408.167969 -28.222656 C 407.351562 -29.121094 406.515625 -30.003906 405.65625 -30.863281 C 404.796875 -31.71875 403.917969 -32.558594 403.019531 -33.375 C 402.117188 -34.191406 401.199219 -34.984375 400.257812 -35.753906 C 399.320312 -36.523438 398.363281 -37.269531 397.386719 -37.996094 C 396.410156 -38.71875 395.417969 -39.417969 394.40625 -40.09375 C 393.398438 -40.769531 392.371094 -41.417969 391.328125 -42.042969 C 390.289062 -42.667969 389.230469 -43.265625 388.160156 -43.835938 C 387.089844 -44.410156 386.003906 -44.957031 384.90625 -45.476562 C 383.808594 -45.996094 382.695312 -46.488281 381.574219 -46.953125 C 380.453125 -47.417969 379.320312 -47.855469 378.175781 -48.261719 C 377.03125 -48.671875 375.878906 -49.054688 374.714844 -49.40625 C 373.554688 -49.757812 372.382812 -50.082031 371.203125 -50.378906 C 370.027344 -50.671875 368.839844 -50.9375 367.648438 -51.175781 C 366.457031 -51.414062 365.261719 -51.621094 364.058594 -51.800781 C 362.859375 -51.976562 361.652344 -52.125 360.445312 -52.246094 C 359.234375 -52.363281 358.023438 -52.453125 356.8125 -52.511719 C 355.597656 -52.574219 354.382812 -52.601562 353.167969 -52.601562 Z M 113.167969 230.941406 L 104.597656 250.910156 C 104.3125 251.734375 103.910156 252.496094 103.390625 253.195312 C 102.875 253.894531 102.265625 254.5 101.5625 255.015625 C 100.859375 255.527344 100.09375 255.925781 99.273438 256.207031 C 98.449219 256.488281 97.601562 256.640625 96.730469 256.664062 C 95.859375 256.6875 95.007812 256.578125 94.167969 256.34375 C 93.332031 256.105469 92.550781 255.75 91.820312 255.273438 C 91.089844 254.800781 90.449219 254.226562 89.894531 253.554688 C 89.339844 252.882812 88.898438 252.144531 88.570312 251.339844 L 60.367188 195.027344 C 59.773438 193.835938 59.320312 192.59375 59.015625 191.296875 C 58.710938 190 58.558594 188.6875 58.558594 187.355469 C 58.558594 186.023438 58.710938 184.710938 59.015625 183.414062 C 59.320312 182.117188 59.773438 180.875 60.367188 179.683594 L 120.367188 60.453125 C 120.644531 59.890625 120.953125 59.339844 121.289062 58.808594 C 121.625 58.277344 121.992188 57.761719 122.382812 57.273438 C 122.777344 56.78125 123.195312 56.3125 123.640625 55.867188 C 124.085938 55.417969 124.554688 55 125.046875 54.605469 C 125.539062 54.210938 126.050781 53.847656 126.582031 53.507812 C 127.113281 53.171875 127.660156 52.863281 128.226562 52.585938 C 128.792969 52.308594 129.371094 52.0625 129.964844 51.851562 C 130.558594 51.636719 131.160156 51.457031 131.773438 51.308594 C 132.382812 51.164062 133.003906 51.050781 133.628906 50.96875 C 134.253906 50.890625 134.878906 50.847656 135.507812 50.835938 C 136.140625 50.828125 136.769531 50.851562 137.394531 50.914062 C 138.023438 50.972656 138.644531 51.066406 139.261719 51.195312 C 139.878906 51.324219 140.484375 51.484375 141.082031 51.679688 C 141.683594 51.875 142.269531 52.101562 142.84375 52.363281 C 143.417969 52.621094 143.972656 52.910156 144.515625 53.234375 C 145.058594 53.554688 145.578125 53.90625 146.082031 54.285156 C 146.898438 54.917969 147.65625 55.617188 148.347656 56.386719 C 149.042969 57.152344 149.664062 57.972656 150.214844 58.851562 C 150.765625 59.726562 151.234375 60.640625 151.625 61.601562 C 152.015625 62.558594 152.316406 63.542969 152.535156 64.554688 C 152.753906 65.5625 152.882812 66.585938 152.921875 67.621094 C 152.960938 68.652344 152.910156 69.683594 152.769531 70.707031 C 152.628906 71.730469 152.398438 72.734375 152.082031 73.71875 C 151.765625 74.703125 151.367188 75.65625 150.882812 76.570312 L 96.539062 183.453125 C 96.226562 184.0625 95.984375 184.703125 95.824219 185.367188 C 95.660156 186.035156 95.578125 186.710938 95.578125 187.398438 C 95.578125 188.082031 95.660156 188.761719 95.824219 189.425781 C 95.984375 190.09375 96.226562 190.730469 96.539062 191.339844 L 112.570312 223.484375 C 113.179688 224.640625 113.507812 225.875 113.550781 227.183594 C 113.597656 228.492188 113.355469 229.742188 112.824219 230.941406 Z M 135.96875 324.539062 C 135.261719 324.542969 134.558594 324.5 133.855469 324.414062 C 133.152344 324.324219 132.457031 324.195312 131.773438 324.023438 C 131.085938 323.851562 130.414062 323.636719 129.753906 323.382812 C 129.09375 323.128906 128.453125 322.832031 127.828125 322.496094 C 127.207031 322.164062 126.605469 321.789062 126.03125 321.382812 C 125.453125 320.972656 124.902344 320.527344 124.378906 320.050781 C 123.859375 319.574219 123.367188 319.066406 122.910156 318.527344 C 122.449219 317.992188 122.023438 317.425781 121.636719 316.835938 C 121.246094 316.246094 120.894531 315.632812 120.582031 315 C 120.265625 314.363281 119.992188 313.714844 119.761719 313.046875 C 119.527344 312.378906 119.335938 311.699219 119.1875 311.007812 C 119.039062 310.316406 118.933594 309.617188 118.871094 308.914062 C 118.808594 308.207031 118.789062 307.5 118.8125 306.796875 C 118.839844 306.089844 118.90625 305.386719 119.019531 304.6875 C 119.132812 303.988281 119.285156 303.300781 119.484375 302.621094 C 119.679688 301.941406 119.917969 301.277344 120.199219 300.625 L 223.054688 60.625 C 223.277344 60.109375 223.523438 59.605469 223.796875 59.113281 C 224.066406 58.621094 224.363281 58.144531 224.679688 57.683594 C 225 57.21875 225.339844 56.773438 225.703125 56.34375 C 226.0625 55.914062 226.445312 55.503906 226.847656 55.113281 C 227.25 54.71875 227.671875 54.347656 228.109375 54 C 228.550781 53.648438 229.003906 53.320312 229.476562 53.015625 C 229.949219 52.707031 230.433594 52.425781 230.933594 52.167969 C 231.429688 51.910156 231.941406 51.675781 232.464844 51.46875 C 232.984375 51.261719 233.515625 51.078125 234.054688 50.921875 C 234.59375 50.765625 235.140625 50.636719 235.695312 50.535156 C 236.246094 50.433594 236.800781 50.359375 237.363281 50.308594 C 237.921875 50.261719 238.484375 50.242188 239.042969 50.25 C 239.605469 50.257812 240.167969 50.292969 240.722656 50.355469 C 241.28125 50.417969 241.835938 50.507812 242.386719 50.621094 C 242.9375 50.738281 243.476562 50.882812 244.015625 51.054688 C 244.550781 51.222656 245.074219 51.417969 245.589844 51.640625 C 246.109375 51.863281 246.613281 52.109375 247.105469 52.378906 C 247.597656 52.652344 248.074219 52.945312 248.535156 53.261719 C 249 53.582031 249.445312 53.921875 249.875 54.285156 C 250.304688 54.644531 250.714844 55.027344 251.109375 55.429688 C 251.5 55.832031 251.871094 56.253906 252.222656 56.691406 C 252.574219 57.128906 252.902344 57.585938 253.210938 58.054688 C 253.515625 58.527344 253.796875 59.011719 254.054688 59.511719 C 254.316406 60.007812 254.546875 60.519531 254.757812 61.039062 C 254.964844 61.5625 255.148438 62.09375 255.304688 62.632812 C 255.460938 63.171875 255.589844 63.71875 255.695312 64.269531 C 255.796875 64.824219 255.871094 65.378906 255.921875 65.9375 C 255.96875 66.5 255.988281 67.058594 255.980469 67.621094 C 255.976562 68.183594 255.941406 68.742188 255.878906 69.300781 C 255.816406 69.859375 255.726562 70.414062 255.613281 70.964844 C 255.496094 71.511719 255.351562 72.054688 255.183594 72.589844 C 255.015625 73.125 254.820312 73.652344 254.597656 74.167969 L 151.742188 314.167969 C 151.410156 314.933594 151.027344 315.675781 150.589844 316.382812 C 150.152344 317.09375 149.664062 317.769531 149.128906 318.410156 C 148.59375 319.050781 148.015625 319.644531 147.390625 320.199219 C 146.769531 320.753906 146.109375 321.261719 145.410156 321.722656 C 144.714844 322.179688 143.988281 322.585938 143.230469 322.9375 C 142.472656 323.289062 141.695312 323.585938 140.898438 323.824219 C 140.097656 324.0625 139.285156 324.242188 138.460938 324.363281 C 137.632812 324.480469 136.804688 324.542969 135.96875 324.539062 Z M 314.769531 195.027344 L 254.769531 314.253906 C 254.488281 314.816406 254.179688 315.363281 253.835938 315.890625 C 253.496094 316.417969 253.128906 316.925781 252.734375 317.414062 C 252.335938 317.902344 251.914062 318.367188 251.46875 318.808594 C 251.019531 319.25 250.550781 319.667969 250.054688 320.054688 C 249.5625 320.445312 249.050781 320.808594 248.515625 321.140625 C 247.984375 321.472656 247.433594 321.777344 246.867188 322.050781 C 246.300781 322.324219 245.722656 322.5625 245.128906 322.773438 C 244.535156 322.980469 243.933594 323.15625 243.324219 323.300781 C 242.710938 323.441406 242.09375 323.550781 241.46875 323.625 C 240.84375 323.703125 240.21875 323.742188 239.589844 323.746094 C 238.960938 323.753906 238.332031 323.726562 237.707031 323.664062 C 237.082031 323.597656 236.464844 323.503906 235.847656 323.371094 C 235.234375 323.238281 234.628906 323.074219 234.03125 322.878906 C 233.433594 322.679688 232.851562 322.449219 232.28125 322.1875 C 231.707031 321.925781 231.152344 321.632812 230.613281 321.308594 C 230.074219 320.988281 229.554688 320.636719 229.054688 320.253906 C 228.257812 319.609375 227.519531 318.902344 226.847656 318.128906 C 226.171875 317.355469 225.566406 316.53125 225.035156 315.65625 C 224.5 314.777344 224.046875 313.863281 223.671875 312.910156 C 223.296875 311.953125 223.007812 310.972656 222.800781 309.96875 C 222.597656 308.964844 222.480469 307.949219 222.449219 306.925781 C 222.417969 305.898438 222.476562 304.878906 222.621094 303.863281 C 222.765625 302.847656 223 301.851562 223.316406 300.878906 C 223.632812 299.902344 224.03125 298.960938 224.511719 298.054688 L 278.253906 191.339844 C 278.570312 190.730469 278.808594 190.09375 278.972656 189.425781 C 279.132812 188.761719 279.214844 188.082031 279.214844 187.398438 C 279.214844 186.710938 279.132812 186.035156 278.972656 185.367188 C 278.808594 184.703125 278.570312 184.0625 278.253906 183.453125 L 262.140625 151.3125 C 261.570312 150.132812 261.285156 148.890625 261.285156 147.582031 C 261.285156 146.273438 261.570312 145.03125 262.140625 143.855469 L 270.710938 123.882812 C 270.996094 123.0625 271.398438 122.300781 271.917969 121.601562 C 272.433594 120.902344 273.046875 120.292969 273.75 119.78125 C 274.449219 119.265625 275.214844 118.871094 276.039062 118.589844 C 276.859375 118.308594 277.707031 118.15625 278.578125 118.132812 C 279.449219 118.109375 280.300781 118.214844 281.140625 118.453125 C 281.976562 118.6875 282.761719 119.046875 283.488281 119.519531 C 284.21875 119.996094 284.859375 120.570312 285.414062 121.238281 C 285.96875 121.910156 286.410156 122.648438 286.742188 123.453125 L 314.941406 179.769531 C 315.515625 180.960938 315.949219 182.203125 316.234375 183.496094 C 316.523438 184.785156 316.660156 186.09375 316.644531 187.417969 C 316.628906 188.742188 316.464844 190.046875 316.148438 191.332031 C 315.832031 192.617188 315.371094 193.847656 314.769531 195.027344 Z M 314.769531 195.027344 " fill-opacity="1" fill-rule="nonzero"/></svg>