<svg viewBox="0 0 48 48" fill="none" xmlns="http://www.w3.org/2000/svg" id="Action-Key--Streamline-Outlined-Material">
  <desc>
    Action Key Streamline Icon: https://streamlinehq.com
  </desc>
  <g id="action-key">
    <path id="Vector" d="m43.5502 45.65 -6 -5.95c-0.6 0.4333 -1.2633 0.7583 -1.99 0.975 -0.7267 0.2167 -1.48 0.325 -2.26 0.325 -2.1037 0 -3.9047 -0.749 -5.403 -2.247 -1.498 -1.4983 -2.247 -3.2993 -2.247 -5.403 0 -2.1173 0.749 -3.93 2.247 -5.438 1.4983 -1.508 3.2993 -2.262 5.403 -2.262 2.1177 0 3.9303 0.754 5.438 2.262 1.508 1.508 2.262 3.3207 2.262 5.438 0 0.7667 -0.1167 1.5083 -0.35 2.225 -0.2333 0.7167 -0.55 1.375 -0.95 1.975l5.95 6 -2.1 2.1Zm-32.95 -4.6c-2.10367 0 -3.90467 -0.749 -5.403 -2.247 -1.498 -1.4983 -2.247 -3.2993 -2.247 -5.403 0 -2.1667 0.749 -4 2.247 -5.5 1.49833 -1.5 3.29933 -2.25 5.403 -2.25 2.1667 0 4 0.75 5.5 2.25s2.25 3.3333 2.25 5.5c0 2.1037 -0.75 3.9047 -2.25 5.403 -1.5 1.498 -3.3333 2.247 -5.5 2.247Zm0 -3c1.3333 0 2.4583 -0.4553 3.375 -1.366 0.9167 -0.9107 1.375 -2.0053 1.375 -3.284 0 -1.3333 -0.4583 -2.4583 -1.375 -3.375 -0.9167 -0.9167 -2.0417 -1.375 -3.375 -1.375 -1.27867 0 -2.37334 0.4583 -3.284 1.375 -0.91067 0.9167 -1.366 2.0417 -1.366 3.375 0 1.2787 0.45533 2.3733 1.366 3.284 0.91066 0.9107 2.00533 1.366 3.284 1.366Zm22.65 0c1.3333 0 2.4583 -0.4553 3.375 -1.366 0.9167 -0.9107 1.375 -2.0053 1.375 -3.284 0 -1.3333 -0.4583 -2.4583 -1.375 -3.375 -0.9167 -0.9167 -2.0417 -1.375 -3.375 -1.375 -1.2787 0 -2.3733 0.4583 -3.284 1.375 -0.9107 0.9167 -1.366 2.0417 -1.366 3.375 0 1.2787 0.4553 2.3733 1.366 3.284 0.9107 0.9107 2.0053 1.366 3.284 1.366Zm-22.65 -19.65c-2.10367 0 -3.90467 -0.749 -5.403 -2.247 -1.498 -1.4983 -2.247 -3.2993 -2.247 -5.403 0 -2.16667 0.749 -4 2.247 -5.5C6.69553 3.75 8.49653 3 10.6002 3c2.1667 0 4 0.75 5.5 2.25s2.25 3.33333 2.25 5.5c0 2.1037 -0.75 3.9047 -2.25 5.403 -1.5 1.498 -3.3333 2.247 -5.5 2.247Zm22.65 0c-2.1037 0 -3.9047 -0.749 -5.403 -2.247 -1.498 -1.4983 -2.247 -3.2993 -2.247 -5.403 0 -2.16667 0.749 -4 2.247 -5.5C29.3455 3.75 31.1465 3 33.2502 3c2.1667 0 4 0.75 5.5 2.25s2.25 3.33333 2.25 5.5c0 2.1037 -0.75 3.9047 -2.25 5.403 -1.5 1.498 -3.3333 2.247 -5.5 2.247Zm-22.65 -3c1.3333 0 2.4583 -0.4553 3.375 -1.366 0.9167 -0.9107 1.375 -2.0053 1.375 -3.284 0 -1.33333 -0.4583 -2.45833 -1.375 -3.375C13.0585 6.45833 11.9335 6 10.6002 6c-1.27867 0 -2.37334 0.45833 -3.284 1.375 -0.91067 0.91667 -1.366 2.04167 -1.366 3.375 0 1.2787 0.45533 2.3733 1.366 3.284 0.91066 0.9107 2.00533 1.366 3.284 1.366Zm22.65 0c1.3333 0 2.4583 -0.4553 3.375 -1.366 0.9167 -0.9107 1.375 -2.0053 1.375 -3.284 0 -1.33333 -0.4583 -2.45833 -1.375 -3.375C35.7085 6.45833 34.5835 6 33.2502 6c-1.2787 0 -2.3733 0.45833 -3.284 1.375 -0.9107 0.91667 -1.366 2.04167 -1.366 3.375 0 1.2787 0.4553 2.3733 1.366 3.284 0.9107 0.9107 2.0053 1.366 3.284 1.366Z" fill="currentColor" stroke-width="1"></path>
  </g>
</svg>