<svg xmlns="http://www.w3.org/2000/svg" fill="none" viewBox="0 0 48 48" id="Alarm--Streamline-Outlined-Material">
  <desc>
    Alarm Streamline Icon: https://streamlinehq.com
  </desc>
  <path fill="currentColor" d="M23.95 43.9004c-2.4667 0 -4.7917 -0.4667 -6.975 -1.4 -2.1833 -0.9333 -4.0833 -2.2083 -5.7 -3.825 -1.61667 -1.6167 -2.9 -3.5167 -3.85 -5.7C6.475 30.7921 6 28.4549 6 25.9639c0 -2.4913 0.475 -4.8247 1.425 -7 0.95 -2.1757 2.23333 -4.0802 3.85 -5.7135 1.6167 -1.6333 3.5167 -2.9167 5.7 -3.85001 2.1833 -0.93333 4.5083 -1.4 6.975 -1.4 2.4667 0 4.7917 0.46667 6.975 1.4 2.1833 0.93331 4.0917 2.21671 5.725 3.85001 1.6333 1.6333 2.9167 3.5378 3.85 5.7135 0.9333 2.1753 1.4 4.5087 1.4 7 0 2.491 -0.4667 4.8282 -1.4 7.0115 -0.9333 2.1833 -2.2167 4.0833 -3.85 5.7 -1.6333 1.6167 -3.5417 2.8917 -5.725 3.825 -2.1833 0.9333 -4.5083 1.4 -6.975 1.4Zm6.05 -9.8 2.1 -2.1 -6.5 -6.5v-9.5h-3v10.7l7.4 7.4ZM10.7 4.65039l2.1 2.1 -8.2 7.90001 -2.1 -2.1 8.2 -7.90001Zm26.5 0 8.2 7.90001 -2.1 2.1 -8.2 -7.90001 2.1 -2.1ZM23.952 40.9004c4.1653 0 7.698 -1.4507 10.598 -4.352 2.9 -2.9017 4.35 -6.435 4.35 -10.6 0 -4.1653 -1.4507 -7.698 -4.352 -10.598 -2.9017 -2.9 -6.435 -4.35 -10.6 -4.35 -4.1653 0 -7.698 1.4507 -10.598 4.352 -2.9 2.9017 -4.35 6.435 -4.35 10.6 0 4.1653 1.4507 7.698 4.352 10.598 2.9017 2.9 6.435 4.35 10.6 4.35Z" stroke-width="1"></path>
</svg>