<svg xmlns="http://www.w3.org/2000/svg" fill="none" viewBox="0 0 96 96" id="Chrome-Web-Store--Streamline-Svg-Logos">
  <desc>
    Chrome Web Store Streamline Icon: https://streamlinehq.com
  </desc>
  <path fill="#f1f3f4" d="M94.9938 7.18701H1V82.4006c0 3.5372 2.86929 6.4126 6.4126 6.4126h81.1748c3.5371 0 6.4126-2.8693 6.4126-6.4126l-.0062-75.21359Z"></path>
  <path fill="#e8eaed" d="M94.9938 7.18701H1V48.2165h93.9938V7.18701Z"></path>
  <path fill="#ffffff" d="M58.6763 24.712H37.3174c-2.3622 0-4.273-1.9108-4.273-4.273 0-2.3622 1.9108-4.273 4.273-4.273h21.3589c2.3622 0 4.273 1.9108 4.273 4.273 0 2.3561-1.9108 4.273-4.273 4.273Z"></path>
  <mask id="a" width="94" height="82" x="1" y="7" maskUnits="userSpaceOnUse" style="mask-type:luminance">
    <path fill="#ffffff" d="M94.9938 7.18701H1V82.4006c0 3.5372 2.86929 6.4126 6.4126 6.4126h81.1748c3.5371 0 6.4126-2.8693 6.4126-6.4126l-.0062-75.21359Z"></path>
  </mask>
  <g mask="url(#a)">
    <path fill="url(#b)" d="m12.8486 62.0991 5.5964 17.0735 11.9842 13.3756 17.5682-30.4429 35.1487-.0062c-7.0186-12.1326-20.1283-20.289-35.1487-20.289-15.0205 0-28.1302 8.1564-35.1488 20.289Z"></path>
    <path fill="url(#c)" d="m47.9905 122.997 11.9842-13.382 5.5902-17.0668H30.4223L12.8479 62.0991c-6.99383 12.145-7.50709 27.586.0062 40.5969 7.5072 13.011 21.1301 20.289 35.1364 20.301Z"></path>
    <path fill="url(#d)" d="M83.1458 62.1055H47.9971l17.5743 30.4428-17.5743 30.4487c14.0125-.012 27.6354-7.29 35.1425-20.301 7.5133-13.0108 7.0001-28.4455.0062-40.5905Z"></path>
    <path fill="#f1f3f4" d="M47.9971 102.696c11.2053 0 20.289-9.0865 20.289-20.2953 0-11.2087-9.0837-20.2952-20.289-20.2952-11.2054 0-20.2891 9.0865-20.2891 20.2952 0 11.2088 9.0837 20.2953 20.2891 20.2953Z"></path>
    <path fill="#1a73e8" d="M47.9968 98.8929c9.1049 0 16.486-7.3839 16.486-16.4922 0-9.1084-7.3811-16.4923-16.486-16.4923-9.105 0-16.4861 7.3839-16.4861 16.4923 0 9.1083 7.3811 16.4922 16.4861 16.4922Z"></path>
  </g>
  <path fill="#bdc1c6" d="M94.9938 48.2166H1v.5318h93.9938v-.5318Z" opacity=".1"></path>
  <path fill="#bdc1c6" d="M94.9938 47.6787H1v.5318h93.9938v-.5318Z" opacity=".1"></path>
  <defs>
    <linearGradient id="b" x1="12.849" x2="7042.6" y1="2578.72" y2="2578.72" gradientUnits="userSpaceOnUse">
      <stop stop-color="#d93025"></stop>
      <stop offset="1" stop-color="#ea4335"></stop>
    </linearGradient>
    <linearGradient id="c" x1="4365.74" x2="927.515" y1="5897.74" y2="-57.273" gradientUnits="userSpaceOnUse">
      <stop stop-color="#1e8e3e"></stop>
      <stop offset="1" stop-color="#34a853"></stop>
    </linearGradient>
    <linearGradient id="d" x1="2479.12" x2="-547.949" y1="53.924" y2="5296.81" gradientUnits="userSpaceOnUse">
      <stop stop-color="#fbbc04"></stop>
      <stop offset="1" stop-color="#fcc934"></stop>
    </linearGradient>
  </defs>
</svg>