<svg xmlns="http://www.w3.org/2000/svg" fill="none" viewBox="0 0 48 48" id="Edit-Note--Streamline-Outlined-Material">
  <desc>
    Edit Note Streamline Icon: https://streamlinehq.com
  </desc>
  <path fill="currentColor" d="M8 27.5v-3h15v3H8Zm0 -8.25v-3h23.5v3H8ZM8 11V8h23.5v3H8Zm18 29v-6.15l11.05 -11c0.3 -0.3 0.6333 -0.5167 1 -0.65 0.3667 -0.1333 0.7333 -0.2 1.1 -0.2 0.4 0 0.7833 0.075 1.15 0.225 0.3667 0.15 0.7 0.375 1 0.675l1.85 1.85c0.3 0.3 0.5167 0.6333 0.65 1 0.1333 0.3667 0.2 0.7333 0.2 1.1 0 0.3667 -0.075 0.7417 -0.225 1.125 -0.15 0.3833 -0.3735 0.725 -0.6705 1.025L32.15 40H26Zm3 -3h1.9l6.05 -6.1 -0.9 -0.95 -0.95 -0.9L29 35.1V37Zm7.05 -7.05 -0.95 -0.9 1.85 1.85 -0.9 -0.95Z" stroke-width="1"></path>
</svg>