<svg xmlns="http://www.w3.org/2000/svg" fill="none" viewBox="0 0 48 48" id="Local-Mall--Streamline-Outlined-Material">
  <desc>
    Local Mall Streamline Icon: https://streamlinehq.com
  </desc>
  <path fill="currentColor" d="M9 44c-0.825 0 -1.53117 -0.2938 -2.1185 -0.8815C6.29383 42.5312 6 41.825 6 41V14.5c0 -0.825 0.29383 -1.5313 0.8815 -2.119C7.46883 11.7937 8.175 11.5 9 11.5h5.5c0 -2.6 0.8917 -4.83333 2.675 -6.7C18.9583 2.93333 21.15 2 23.75 2c2.6973 0 4.9967 0.91667 6.898 2.75C32.5493 6.58333 33.5 8.83333 33.5 11.5H39c0.825 0 1.5313 0.2937 2.119 0.881 0.5873 0.5877 0.881 1.294 0.881 2.119V41c0 0.825 -0.2937 1.5312 -0.881 2.1185C40.5313 43.7062 39.825 44 39 44H9Zm0 -3h30V14.5H9V41Zm15 -14.5c2.6333 0 4.9167 -0.9667 6.85 -2.9s2.9 -4.2167 2.9 -6.85h-3c0 1.8333 -0.6667 3.4167 -2 4.75s-2.9167 2 -4.75 2 -3.4167 -0.6667 -4.75 -2 -2 -2.9167 -2 -4.75h-3c0 2.6333 0.9667 4.9167 2.9 6.85s4.2167 2.9 6.85 2.9Zm-6.5 -15h13c0 -1.83333 -0.625 -3.375 -1.875 -4.625S25.8333 5 24 5s-3.375 0.625 -4.625 1.875S17.5 9.66667 17.5 11.5Z" stroke-width="1"></path>
</svg>