<svg xmlns="http://www.w3.org/2000/svg" fill="none" viewBox="0 0 48 48" id="Search--Streamline-Outlined-Material">
  <desc>
    Search Streamline Icon: https://streamlinehq.com
  </desc>
  <path fill="currentColor" d="m39.8 41.9502 -13.15 -13.15c-1 0.8667 -2.166 1.5417 -3.498 2.025 -1.332 0.4833 -2.7493 0.725 -4.252 0.725 -3.6053 0 -6.6567 -1.25 -9.154 -3.75 -2.49733 -2.5 -3.746 -5.5167 -3.746 -9.05 0 -3.5333 1.25 -6.55 3.75 -9.05 2.5 -2.5 5.525 -3.75 9.075 -3.75 3.55 0 6.5667 1.25 9.05 3.75 2.4833 2.5 3.725 5.5192 3.725 9.0575 0 1.4283 -0.2333 2.8092 -0.7 4.1425 -0.4667 1.3333 -1.1667 2.5833 -2.1 3.75l13.2 13.1 -2.2 2.2Zm-20.95 -13.4c2.7083 0 5.0105 -0.9583 6.9065 -2.875 1.8957 -1.9167 2.8435 -4.225 2.8435 -6.925s-0.9478 -5.0083 -2.8435 -6.925c-1.896 -1.91667 -4.1982 -2.875 -6.9065 -2.875 -2.736 0 -5.0617 0.95833 -6.977 2.875C9.95767 13.7419 9 16.0502 9 18.7502s0.95767 5.0083 2.873 6.925c1.9153 1.9167 4.241 2.875 6.977 2.875Z" stroke-width="1"></path>
</svg>