<svg xmlns="http://www.w3.org/2000/svg" fill="none" viewBox="0 0 48 48" id="Select-Window-Off--Streamline-Outlined-Material">
  <desc>
    Select Window Off Streamline Icon: https://streamlinehq.com
  </desc>
  <path fill="currentColor" d="m41.6501 45.9502 -21.3001 -21.3H7.00005v16.35H32.3v-8.7l3 3v5.7c0 0.825 -0.2936 1.5312 -0.881 2.1185 -0.5876 0.5877 -1.294 0.8815 -2.119 0.8815H7.00005c-0.825 0 -1.53117 -0.2938 -2.1185 -0.8815 -0.58767 -0.5873 -0.8815 -1.2935 -0.8815 -2.1185v-19.35c0 -0.825 0.29383 -1.5313 0.8815 -2.119 0.58733 -0.5873 1.2935 -0.881 2.1185 -0.881H12.75v-1.6L1.30005 5.6002l2.15 -2.15L43.8 43.8002l-2.1499 2.15ZM35.3 31.0002l-3 -3v-3.35h-3.35l-6 -6h8.65c1.0667 0 1.95 0.35 2.65 1.05 0.7001 0.7 1.05 1.5833 1.05 2.65v4H41v-16.35H15.75v1.45l-3 -3v-1.45c0 -0.83334 0.2917 -1.54167 0.875 -2.125 0.5834 -0.58334 1.2917 -0.875 2.125 -0.875H41c0.8251 0 1.5314 0.29366 2.119 0.881 0.5874 0.58766 0.881 1.294 0.881 2.119v19.35c0 0.825 -0.2936 1.5312 -0.881 2.1185 -0.5876 0.5877 -1.2939 0.8815 -2.119 0.8815h-5.7v1.65Z" stroke-width="1"></path>
</svg>