<svg viewBox="0 0 48 48" fill="none" xmlns="http://www.w3.org/2000/svg" id="Select-Check-Box--Streamline-Outlined-Material">
  <desc>
    Select Check Box Streamline Icon: https://streamlinehq.com
  </desc>
  <g id="select-check-box">
    <path id="Vector" d="M9 42c-0.825 0 -1.53117 -0.2938 -2.1185 -0.8815C6.29383 40.5312 6 39.825 6 39V9c0 -0.825 0.29383 -1.53133 0.8815 -2.119C7.46883 6.29367 8.175 6 9 6h30c0.4667 0 0.8917 0.1 1.275 0.3 0.3833 0.2 0.6917 0.43333 0.925 0.7L39 9.2V9H9v30h30V21.85l3 -3V39c0 0.825 -0.2937 1.5312 -0.881 2.1185C40.5313 41.7062 39.825 42 39 42H9Zm14.05 -8.4 -11.1 -11.1 2.1 -2.1 9 9 19.1 -19.1 2.1 2.1 -21.2 21.2Z" fill="currentColor" stroke-width="1"></path>
  </g>
</svg>