<svg xmlns="http://www.w3.org/2000/svg" fill="none" viewBox="0 0 48 48" id="Select-Window--Streamline-Outlined-Material">
  <desc>
    Select Window Streamline Icon: https://streamlinehq.com
  </desc>
  <path fill="currentColor" d="M7 44c-0.8 0 -1.5 -0.3 -2.1 -0.9 -0.6 -0.6 -0.9 -1.3 -0.9 -2.1V21.65c0 -0.8 0.3 -1.5 0.9 -2.1 0.6 -0.6 1.3 -0.9 2.1 -0.9h5.75V7c0 -0.8 0.3 -1.5 0.9 -2.1 0.6 -0.6 1.3 -0.9 2.1 -0.9H41c0.8 0 1.5 0.3 2.1 0.9 0.6 0.6 0.9 1.3 0.9 2.1v19.35c0 0.8 -0.3 1.5 -0.9 2.1 -0.6 0.6 -1.3 0.9 -2.1 0.9h-5.7V41c0 0.8 -0.3 1.5 -0.9 2.1 -0.6 0.6 -1.3 0.9 -2.1 0.9H7Zm0 -3h25.3V24.65H7V41Zm28.3 -14.65H41V10H15.75v8.65H31.6c1.0667 0 1.95 0.35 2.65 1.05 0.7 0.7 1.05 1.5833 1.05 2.65v4Z" stroke-width="1"></path>
</svg>