<svg xmlns="http://www.w3.org/2000/svg" fill="none" viewBox="0 0 48 48" id="Settings--Streamline-Outlined-Material">
  <desc>
    Settings Streamline Icon: https://streamlinehq.com
  </desc>
  <path fill="currentColor" d="m19.4 44 -1 -6.3c-0.6333 -0.2333 -1.3 -0.55 -2 -0.95 -0.7 -0.4 -1.3167 -0.8167 -1.85 -1.25l-5.9 2.7L4 30l5.4 -3.95c-0.06667 -0.3 -0.10833 -0.6417 -0.125 -1.025 -0.01667 -0.3833 -0.025 -0.725 -0.025 -1.025 0 -0.3 0.00833 -0.6417 0.025 -1.025 0.01667 -0.3833 0.05833 -0.725 0.125 -1.025L4 18l4.65 -8.2 5.9 2.7c0.5333 -0.4333 1.15 -0.85 1.85 -1.25 0.7 -0.4 1.3667 -0.7 2 -0.9l1 -6.35h9.2l1 6.3c0.6333 0.2333 1.3083 0.5417 2.025 0.925 0.7167 0.3833 1.325 0.8083 1.825 1.275l5.9 -2.7L44 18l-5.4 3.85c0.0667 0.3333 0.1083 0.6917 0.125 1.075 0.0167 0.3833 0.025 0.7417 0.025 1.075 0 0.3333 -0.0083 0.6833 -0.025 1.05s-0.0583 0.7167 -0.125 1.05L44 30l-4.65 8.2 -5.9 -2.7c-0.5333 0.4333 -1.1417 0.8583 -1.825 1.275 -0.6833 0.4167 -1.3583 0.725 -2.025 0.925l-1 6.3h-9.2Zm2.4 -3h4.4l0.7 -5.6c1.1 -0.2667 2.1417 -0.6833 3.125 -1.25 0.9833 -0.5667 1.875 -1.25 2.675 -2.05l5.3 2.3 2 -3.6 -4.7 -3.45c0.1333 -0.5667 0.2417 -1.125 0.325 -1.675 0.0833 -0.55 0.125 -1.1083 0.125 -1.675s-0.0333 -1.125 -0.1 -1.675c-0.0667 -0.55 -0.1833 -1.1083 -0.35 -1.675L40 17.2l-2 -3.6 -5.3 2.3c-0.7667 -0.8667 -1.6333 -1.5917 -2.6 -2.175 -0.9667 -0.5833 -2.0333 -0.9583 -3.2 -1.125L26.2 7h-4.4l-0.7 5.6c-1.1333 0.2333 -2.1917 0.6333 -3.175 1.2 -0.9833 0.5667 -1.8583 1.2667 -2.625 2.1L10 13.6l-2 3.6 4.7 3.45c-0.1333 0.5667 -0.2417 1.125 -0.325 1.675 -0.0833 0.55 -0.125 1.1083 -0.125 1.675s0.0417 1.125 0.125 1.675 0.1917 1.1083 0.325 1.675L8 30.8l2 3.6 5.3 -2.3c0.8 0.8 1.6917 1.4833 2.675 2.05 0.9833 0.5667 2.025 0.9833 3.125 1.25l0.7 5.6ZM24 30.5c1.8 0 3.3333 -0.6333 4.6 -1.9 1.2667 -1.2667 1.9 -2.8 1.9 -4.6 0 -1.8 -0.6333 -3.3333 -1.9 -4.6 -1.2667 -1.2667 -2.8 -1.9 -4.6 -1.9 -1.8 0 -3.3333 0.6333 -4.6 1.9 -1.2667 1.2667 -1.9 2.8 -1.9 4.6 0 1.8 0.6333 3.3333 1.9 4.6 1.2667 1.2667 2.8 1.9 4.6 1.9Z" stroke-width="1"></path>
</svg>