<svg viewBox="0 0 48 48" fill="none" xmlns="http://www.w3.org/2000/svg" id="Terminal--Streamline-Outlined-Material">
  <desc>
    Terminal Streamline Icon: https://streamlinehq.com
  </desc>
  <g id="terminal">
    <path id="Vector" d="M7 40c-0.8 0 -1.5 -0.3 -2.1 -0.9 -0.6 -0.6 -0.9 -1.3 -0.9 -2.1V11c0 -0.8 0.3 -1.5 0.9 -2.1C5.5 8.3 6.2 8 7 8h34c0.8 0 1.5 0.3 2.1 0.9 0.6 0.6 0.9 1.3 0.9 2.1v26c0 0.8 -0.3 1.5 -0.9 2.1 -0.6 0.6 -1.3 0.9 -2.1 0.9H7Zm0 -3h34V15.2H7V37Zm8 -3.6 -2.1 -2.1 5.15 -5.2 -5.2 -5.2L15 18.8l7.3 7.3 -7.3 7.3Zm9.5 0.2v-3h11v3h-11Z" fill="currentColor" stroke-width="1"></path>
  </g>
</svg>