<svg xmlns="http://www.w3.org/2000/svg" fill="none" viewBox="0 0 48 48" id="Volume-Up--Streamline-Outlined-Material">
  <desc>
    Volume Up Streamline Icon: https://streamlinehq.com
  </desc>
  <path fill="currentColor" d="M28 41.4502v-3.1c3.2333 -0.9333 5.875 -2.725 7.925 -5.375S39 27.3169 39 23.9502c0 -3.3667 -1.0167 -6.3833 -3.05 -9.05 -2.0333 -2.6667 -4.6833 -4.45 -7.95 -5.35v-3.1c4.1333 0.93333 7.5 3.025 10.1 6.275 2.6 3.25 3.9 6.9917 3.9 11.225s-1.3 7.975 -3.9 11.225c-2.6 3.25 -5.9667 5.3417 -10.1 6.275Zm-22 -11.45v-12h8l10 -10v32l-10 -10H6Zm21 2.4v-16.85c1.8333 0.5667 3.2917 1.6333 4.375 3.2 1.0833 1.5667 1.625 3.3167 1.625 5.25 0 1.9 -0.55 3.6333 -1.65 5.2 -1.1 1.5667 -2.55 2.6333 -4.35 3.2Zm-6 -16.8 -5.65 5.4H9v6h6.35l5.65 5.45v-16.85Z" stroke-width="1"></path>
</svg>