<svg xmlns="http://www.w3.org/2000/svg" fill="none" viewBox="0 0 96 96" id="Youtube-Icon--Streamline-Svg-Logos">
  <desc>
    Youtube Icon Streamline Icon: https://streamlinehq.com
  </desc>
  <path fill="#ff0000" d="M92.9256 25.3928c-1.0972 -4.0548 -4.2647 -7.2222 -8.3195 -8.3194 -7.2945 -1.9894 -36.6537 -1.9894 -36.6537 -1.9894s-29.3591 0.0603 -36.6536 2.0497c-4.05483 1.0972 -7.22226 4.2646 -8.31947 8.3194 -2.206452 12.9614 -3.0625084 32.711 0.06029 45.154 1.09721 4.0548 4.26464 7.2222 8.31938 8.3194 7.2946 1.9894 36.6537 1.9894 36.6537 1.9894s29.3592 0 36.6537 -1.9894c4.0548 -1.0972 7.2222 -4.2646 8.3195 -8.3194 2.327 -12.9795 3.0444 -32.717 -0.0603 -45.2143Z" stroke-width="1"></path>
  <path fill="#ffffff" d="m38.6089 62.1063 24.3554 -14.1069 -24.3554 -14.1068v28.2137Z" stroke-width="1"></path>
</svg>