<svg xmlns="http://www.w3.org/2000/svg" xmlns:xlink="http://www.w3.org/1999/xlink" width="500" zoomAndPan="magnify" viewBox="0 0 375 374.999991" height="500" preserveAspectRatio="xMidYMid meet" version="1.0"><defs><clipPath id="22bf1ba078"><path d="M 37.5 37.5 L 337.5 37.5 L 337.5 337.5 L 37.5 337.5 Z M 37.5 37.5 " clip-rule="nonzero"/></clipPath></defs><g clip-path="url(#22bf1ba078)"><path fill="#ffffff" d="M 37.5 37.5 L 337.5 37.5 L 337.5 337.5 L 37.5 337.5 L 37.5 37.5 " fill-opacity="1" fill-rule="nonzero"/></g><path fill="#0072ff" d="M 317.007812 0 L 57.992188 0 C 56.089844 0 54.195312 0.09375 52.308594 0.277344 C 50.417969 0.464844 48.539062 0.742188 46.675781 1.113281 C 44.816406 1.484375 42.976562 1.945312 41.15625 2.496094 C 39.339844 3.046875 37.554688 3.6875 35.800781 4.414062 C 34.042969 5.140625 32.328125 5.953125 30.652344 6.847656 C 28.980469 7.742188 27.351562 8.71875 25.773438 9.773438 C 24.195312 10.828125 22.671875 11.957031 21.203125 13.164062 C 19.734375 14.367188 18.328125 15.640625 16.984375 16.984375 C 15.640625 18.328125 14.367188 19.734375 13.164062 21.203125 C 11.957031 22.671875 10.828125 24.195312 9.773438 25.773438 C 8.71875 27.351562 7.742188 28.980469 6.847656 30.652344 C 5.953125 32.328125 5.140625 34.042969 4.414062 35.800781 C 3.6875 37.554688 3.046875 39.339844 2.496094 41.15625 C 1.945312 42.976562 1.484375 44.816406 1.113281 46.675781 C 0.742188 48.539062 0.464844 50.417969 0.277344 52.308594 C 0.09375 54.195312 0 56.089844 0 57.992188 L 0 317.007812 C 0 318.910156 0.09375 320.804688 0.277344 322.691406 C 0.464844 324.582031 0.742188 326.460938 1.113281 328.324219 C 1.484375 330.183594 1.945312 332.023438 2.496094 333.84375 C 3.046875 335.660156 3.6875 337.445312 4.414062 339.199219 C 5.140625 340.957031 5.953125 342.671875 6.847656 344.347656 C 7.742188 346.019531 8.71875 347.648438 9.773438 349.226562 C 10.828125 350.804688 11.957031 352.328125 13.164062 353.796875 C 14.367188 355.265625 15.640625 356.671875 16.984375 358.015625 C 18.328125 359.359375 19.734375 360.632812 21.203125 361.835938 C 22.671875 363.042969 24.195312 364.171875 25.773438 365.226562 C 27.351562 366.28125 28.980469 367.257812 30.652344 368.152344 C 32.328125 369.046875 34.042969 369.859375 35.800781 370.585938 C 37.554688 371.3125 39.339844 371.953125 41.15625 372.503906 C 42.976562 373.054688 44.816406 373.515625 46.675781 373.886719 C 48.539062 374.257812 50.417969 374.535156 52.308594 374.722656 C 54.195312 374.90625 56.089844 375 57.992188 375 L 317.007812 375 C 318.910156 375 320.804688 374.90625 322.691406 374.722656 C 324.582031 374.535156 326.460938 374.257812 328.324219 373.886719 C 330.183594 373.515625 332.023438 373.054688 333.84375 372.503906 C 335.660156 371.953125 337.445312 371.3125 339.199219 370.585938 C 340.957031 369.859375 342.671875 369.046875 344.347656 368.152344 C 346.019531 367.257812 347.648438 366.28125 349.226562 365.226562 C 350.804688 364.171875 352.328125 363.042969 353.796875 361.835938 C 355.265625 360.632812 356.671875 359.359375 358.015625 358.015625 C 359.359375 356.671875 360.632812 355.265625 361.835938 353.796875 C 363.042969 352.328125 364.171875 350.804688 365.226562 349.226562 C 366.28125 347.648438 367.257812 346.019531 368.152344 344.34375 C 369.046875 342.671875 369.859375 340.957031 370.585938 339.199219 C 371.3125 337.445312 371.953125 335.660156 372.503906 333.84375 C 373.054688 332.023438 373.515625 330.183594 373.886719 328.324219 C 374.257812 326.460938 374.535156 324.582031 374.722656 322.691406 C 374.90625 320.804688 375 318.910156 375 317.007812 L 375 57.992188 C 375 56.089844 374.90625 54.195312 374.722656 52.308594 C 374.535156 50.417969 374.257812 48.539062 373.886719 46.675781 C 373.515625 44.816406 373.054688 42.976562 372.503906 41.15625 C 371.953125 39.339844 371.3125 37.554688 370.585938 35.800781 C 369.859375 34.042969 369.046875 32.328125 368.152344 30.652344 C 367.257812 28.980469 366.28125 27.351562 365.226562 25.773438 C 364.171875 24.195312 363.042969 22.671875 361.835938 21.203125 C 360.632812 19.734375 359.359375 18.328125 358.015625 16.984375 C 356.671875 15.640625 355.265625 14.367188 353.796875 13.164062 C 352.328125 11.957031 350.804688 10.828125 349.226562 9.773438 C 347.648438 8.71875 346.019531 7.742188 344.34375 6.847656 C 342.671875 5.953125 340.957031 5.140625 339.199219 4.414062 C 337.445312 3.6875 335.660156 3.046875 333.84375 2.496094 C 332.023438 1.945312 330.183594 1.484375 328.324219 1.113281 C 326.460938 0.742188 324.582031 0.464844 322.691406 0.277344 C 320.804688 0.09375 318.910156 0 317.007812 0 Z M 129.507812 221.519531 L 122.8125 237.121094 C 122.589844 237.761719 122.273438 238.355469 121.871094 238.902344 C 121.464844 239.449219 120.988281 239.925781 120.441406 240.324219 C 119.890625 240.726562 119.296875 241.039062 118.652344 241.257812 C 118.007812 241.476562 117.347656 241.597656 116.667969 241.613281 C 115.988281 241.632812 115.320312 241.546875 114.664062 241.363281 C 114.011719 241.179688 113.398438 240.902344 112.832031 240.527344 C 112.261719 240.15625 111.757812 239.710938 111.324219 239.1875 C 110.894531 238.660156 110.546875 238.085938 110.289062 237.457031 L 88.257812 193.460938 C 87.792969 192.53125 87.441406 191.558594 87.203125 190.546875 C 86.960938 189.535156 86.84375 188.507812 86.84375 187.464844 C 86.84375 186.425781 86.960938 185.398438 87.203125 184.386719 C 87.441406 183.375 87.792969 182.402344 88.257812 181.472656 L 135.132812 88.324219 C 135.351562 87.882812 135.589844 87.453125 135.851562 87.039062 C 136.117188 86.625 136.402344 86.222656 136.707031 85.839844 C 137.015625 85.453125 137.34375 85.089844 137.691406 84.742188 C 138.039062 84.390625 138.40625 84.0625 138.789062 83.757812 C 139.171875 83.449219 139.570312 83.164062 139.988281 82.898438 C 140.402344 82.636719 140.832031 82.394531 141.273438 82.179688 C 141.714844 81.960938 142.167969 81.769531 142.628906 81.601562 C 143.09375 81.4375 143.5625 81.296875 144.042969 81.179688 C 144.519531 81.066406 145.003906 80.976562 145.492188 80.917969 C 145.980469 80.855469 146.46875 80.820312 146.960938 80.8125 C 147.453125 80.804688 147.945312 80.824219 148.433594 80.871094 C 148.925781 80.917969 149.410156 80.992188 149.894531 81.089844 C 150.375 81.191406 150.847656 81.316406 151.316406 81.46875 C 151.785156 81.621094 152.242188 81.800781 152.691406 82.003906 C 153.140625 82.207031 153.574219 82.433594 154 82.683594 C 154.421875 82.933594 154.832031 83.207031 155.222656 83.503906 C 155.859375 84 156.449219 84.546875 156.992188 85.148438 C 157.535156 85.746094 158.019531 86.386719 158.449219 87.070312 C 158.878906 87.757812 159.246094 88.472656 159.550781 89.21875 C 159.855469 89.96875 160.09375 90.738281 160.265625 91.527344 C 160.433594 92.316406 160.535156 93.117188 160.566406 93.921875 C 160.597656 94.730469 160.554688 95.535156 160.445312 96.335938 C 160.335938 97.136719 160.15625 97.921875 159.910156 98.691406 C 159.664062 99.457031 159.351562 100.199219 158.972656 100.914062 L 116.519531 184.417969 C 116.015625 185.386719 115.765625 186.414062 115.765625 187.5 C 115.765625 188.585938 116.015625 189.613281 116.519531 190.582031 L 129.039062 215.691406 C 129.515625 216.597656 129.773438 217.558594 129.808594 218.582031 C 129.84375 219.605469 129.652344 220.582031 129.242188 221.519531 Z M 147.320312 294.644531 C 146.769531 294.644531 146.21875 294.609375 145.667969 294.542969 C 145.121094 294.476562 144.578125 294.375 144.042969 294.238281 C 143.507812 294.105469 142.980469 293.9375 142.464844 293.738281 C 141.949219 293.539062 141.449219 293.308594 140.960938 293.046875 C 140.476562 292.785156 140.007812 292.496094 139.554688 292.175781 C 139.105469 291.855469 138.675781 291.507812 138.269531 291.136719 C 137.859375 290.761719 137.476562 290.367188 137.117188 289.945312 C 136.757812 289.527344 136.425781 289.085938 136.125 288.625 C 135.820312 288.160156 135.542969 287.683594 135.300781 287.1875 C 135.054688 286.691406 134.839844 286.183594 134.660156 285.664062 C 134.476562 285.140625 134.328125 284.609375 134.210938 284.070312 C 134.09375 283.53125 134.011719 282.984375 133.964844 282.433594 C 133.914062 281.882812 133.898438 281.332031 133.917969 280.777344 C 133.9375 280.226562 133.992188 279.679688 134.078125 279.132812 C 134.167969 278.585938 134.289062 278.046875 134.441406 277.515625 C 134.59375 276.988281 134.78125 276.46875 135 275.960938 L 215.355469 88.460938 C 215.703125 87.652344 216.128906 86.886719 216.628906 86.160156 C 217.125 85.433594 217.691406 84.765625 218.320312 84.152344 C 218.953125 83.539062 219.636719 82.992188 220.375 82.511719 C 221.113281 82.035156 221.890625 81.632812 222.707031 81.304688 C 223.523438 80.980469 224.367188 80.738281 225.230469 80.578125 C 226.097656 80.417969 226.96875 80.34375 227.847656 80.351562 C 228.730469 80.363281 229.597656 80.460938 230.460938 80.644531 C 231.320312 80.828125 232.15625 81.09375 232.964844 81.441406 C 233.773438 81.785156 234.539062 82.210938 235.265625 82.707031 C 235.988281 83.207031 236.660156 83.769531 237.273438 84.398438 C 237.886719 85.03125 238.4375 85.714844 238.914062 86.453125 C 239.394531 87.1875 239.796875 87.964844 240.125 88.785156 C 240.453125 89.601562 240.695312 90.441406 240.855469 91.308594 C 241.015625 92.171875 241.09375 93.042969 241.082031 93.925781 C 241.070312 94.804688 240.976562 95.675781 240.792969 96.535156 C 240.609375 97.394531 240.347656 98.230469 240 99.039062 L 159.644531 286.539062 C 159.125 287.746094 158.445312 288.847656 157.601562 289.851562 C 156.761719 290.859375 155.792969 291.71875 154.699219 292.441406 C 153.601562 293.160156 152.425781 293.707031 151.171875 294.082031 C 149.914062 294.457031 148.632812 294.644531 147.320312 294.644531 Z M 287.007812 193.460938 L 240.132812 286.605469 C 239.914062 287.046875 239.671875 287.472656 239.40625 287.886719 C 239.140625 288.296875 238.851562 288.695312 238.542969 289.078125 C 238.234375 289.457031 237.902344 289.820312 237.554688 290.164062 C 237.203125 290.511719 236.835938 290.835938 236.453125 291.140625 C 236.066406 291.445312 235.664062 291.726562 235.25 291.988281 C 234.832031 292.246094 234.402344 292.484375 233.960938 292.695312 C 233.519531 292.910156 233.066406 293.097656 232.601562 293.261719 C 232.140625 293.425781 231.667969 293.5625 231.191406 293.675781 C 230.714844 293.785156 230.230469 293.871094 229.742188 293.929688 C 229.253906 293.988281 228.765625 294.019531 228.273438 294.023438 C 227.785156 294.027344 227.292969 294.007812 226.804688 293.957031 C 226.316406 293.90625 225.832031 293.832031 225.351562 293.730469 C 224.871094 293.625 224.398438 293.5 223.933594 293.34375 C 223.464844 293.1875 223.011719 293.007812 222.5625 292.804688 C 222.117188 292.601562 221.683594 292.371094 221.261719 292.117188 C 220.839844 291.867188 220.4375 291.589844 220.042969 291.292969 C 219.421875 290.789062 218.847656 290.238281 218.320312 289.632812 C 217.792969 289.03125 217.320312 288.386719 216.902344 287.703125 C 216.488281 287.015625 216.132812 286.300781 215.839844 285.554688 C 215.546875 284.808594 215.320312 284.042969 215.160156 283.257812 C 215 282.472656 214.90625 281.679688 214.882812 280.878906 C 214.859375 280.078125 214.90625 279.28125 215.019531 278.488281 C 215.132812 277.695312 215.3125 276.917969 215.5625 276.15625 C 215.808594 275.394531 216.121094 274.660156 216.496094 273.949219 L 258.480469 190.582031 C 258.984375 189.613281 259.234375 188.585938 259.234375 187.5 C 259.234375 186.414062 258.984375 185.386719 258.480469 184.417969 L 245.894531 159.308594 C 245.449219 158.386719 245.226562 157.417969 245.226562 156.394531 C 245.226562 155.375 245.449219 154.402344 245.894531 153.480469 L 252.589844 137.878906 C 252.8125 137.238281 253.125 136.644531 253.53125 136.097656 C 253.9375 135.550781 254.414062 135.074219 254.960938 134.675781 C 255.511719 134.273438 256.105469 133.960938 256.75 133.742188 C 257.394531 133.523438 258.054688 133.40625 258.734375 133.386719 C 259.414062 133.367188 260.082031 133.453125 260.734375 133.636719 C 261.390625 133.820312 262.003906 134.101562 262.570312 134.472656 C 263.140625 134.84375 263.640625 135.289062 264.074219 135.8125 C 264.507812 136.339844 264.855469 136.914062 265.113281 137.542969 L 287.144531 181.539062 C 287.59375 182.472656 287.929688 183.441406 288.15625 184.449219 C 288.378906 185.460938 288.488281 186.480469 288.476562 187.515625 C 288.464844 188.550781 288.332031 189.570312 288.085938 190.574219 C 287.839844 191.578125 287.480469 192.539062 287.007812 193.460938 Z M 287.007812 193.460938 " fill-opacity="1" fill-rule="nonzero"/></svg>